<svg width="52" height="52" viewBox="0 0 52 52" fill="none" xmlns="http://www.w3.org/2000/svg">
<path d="M45.3337 24.0348H43.2602C42.2132 20.9675 39.2769 18.7495 35.8204 18.7495C32.284 18.7495 29.2886 21.0691 28.3079 24.2467C27.6876 23.8421 26.8921 23.5915 25.9999 23.5915C25.1079 23.5915 24.3125 23.842 23.6921 24.2466C22.7113 21.069 19.7153 18.7496 16.1791 18.7496C12.7225 18.7496 9.78649 20.9676 8.73968 24.0349H6.66699V25.6247H8.37896C8.34599 25.9126 8.32529 26.204 8.32529 26.5004C8.32529 30.7741 11.8485 34.2504 16.1791 34.2504C20.5096 34.2504 24.0332 30.774 24.0332 26.5004C24.0332 26.4559 24.0273 26.4128 24.0264 26.3684H24.0321C24.0321 25.8071 24.8404 25.1814 26 25.1814C27.1599 25.1814 27.9678 25.8071 27.9678 26.3684H27.9738C27.973 26.4127 27.967 26.4559 27.967 26.5004C27.967 30.7741 31.4898 34.2504 35.8204 34.2504C40.151 34.2504 43.6745 30.774 43.6745 26.5004C43.6745 26.204 43.6538 25.9126 43.6209 25.6247H45.3337V24.0348ZM16.1791 32.6606C12.737 32.6606 9.93637 29.8968 9.93637 26.5004C9.93637 23.1032 12.737 20.3395 16.1791 20.3395C19.6216 20.3395 22.4221 23.1032 22.4221 26.5004C22.4221 29.8968 19.6216 32.6606 16.1791 32.6606ZM35.8205 32.6606C32.3788 32.6606 29.5782 29.8968 29.5782 26.5004C29.5782 23.1032 32.3788 20.3395 35.8205 20.3395C39.263 20.3395 42.0635 23.1032 42.0635 26.5004C42.0635 29.8968 39.2629 32.6606 35.8205 32.6606Z" fill="white"/>
</svg>
