<svg width="24" height="24" viewBox="0 0 24 24" fill="none" xmlns="http://www.w3.org/2000/svg">
<g clip-path="url(#clip0_2303_123)">
<path fill-rule="evenodd" clip-rule="evenodd" d="M16 4H8C7.44772 4 7 4.44772 7 5V19C7 19.5523 7.44772 20 8 20H16C16.5523 20 17 19.5523 17 19V5C17 4.44772 16.5523 4 16 4ZM10.5 5C10.5 4.72386 10.7239 4.5 11 4.5H13C13.2761 4.5 13.5 4.72386 13.5 5C13.5 5.27614 13.2761 5.5 13 5.5H11C10.7239 5.5 10.5 5.27614 10.5 5ZM13 17C13 16.4477 12.5523 16 12 16C11.4477 16 11 16.4477 11 17V17.01C11 17.5623 11.4477 18.01 12 18.01C12.5523 18.01 13 17.5623 13 17.01V17Z" fill="white"/>
</g>
<defs>
<clipPath id="clip0_2303_123">
<rect width="24" height="24" fill="white"/>
</clipPath>
</defs>
</svg>
