<svg width="24" height="24" viewBox="0 0 24 24" fill="none" xmlns="http://www.w3.org/2000/svg">
<g clip-path="url(#clip0_2303_113)">
<path fill-rule="evenodd" clip-rule="evenodd" d="M13.414 20.9L17.657 16.657C18.7758 15.5381 19.5377 14.1127 19.8463 12.5608C20.155 11.009 19.9965 9.40047 19.391 7.93868C18.7855 6.4769 17.7601 5.22749 16.4445 4.34846C15.1289 3.46943 13.5822 3.00024 12 3.00024C10.4178 3.00024 8.87107 3.46943 7.55548 4.34846C6.2399 5.22749 5.21452 6.4769 4.60901 7.93868C4.00349 9.40047 3.84504 11.009 4.15369 12.5608C4.46234 14.1127 5.22422 15.5381 6.343 16.657L10.587 20.9C10.962 21.2746 11.4704 21.485 12.0005 21.485C12.5306 21.485 13.039 21.2746 13.414 20.9ZM15 11C15 12.6569 13.6569 14 12 14C10.3431 14 9 12.6569 9 11C9 9.34315 10.3431 8 12 8C13.6569 8 15 9.34315 15 11Z" fill="white"/>
</g>
<defs>
<clipPath id="clip0_2303_113">
<rect width="24" height="24" fill="white"/>
</clipPath>
</defs>
</svg>
