<svg width="24" height="24" viewBox="0 0 24 24" fill="none" xmlns="http://www.w3.org/2000/svg">
<g clip-path="url(#clip0_2303_118)">
<path fill-rule="evenodd" clip-rule="evenodd" d="M5 5H19C20.0969 5 20.9876 5.88304 20.9999 6.97702C20.9954 6.77557 20.9302 6.57355 20.8001 6.40006C20.4687 5.95823 19.8419 5.86869 19.4001 6.20006L12.0001 11.7501L4.60006 6.20006C4.15823 5.86869 3.53143 5.95823 3.20006 6.40006C2.86869 6.84189 2.95823 7.46869 3.40006 7.80006L11.4001 13.8001C11.7556 14.0667 12.2445 14.0667 12.6001 13.8001L20.6001 7.80006C20.8576 7.60692 20.9954 7.31342 21 7.01467V17C21 18.1046 20.1046 19 19 19H5C3.89543 19 3 18.1046 3 17V7C3 5.89543 3.89543 5 5 5ZM21 7.01467C21.0002 7.00213 21.0002 6.98957 20.9999 6.97702C21 6.98467 21 6.99233 21 7V7.01467Z" fill="white"/>
</g>
<defs>
<clipPath id="clip0_2303_118">
<rect width="24" height="24" fill="white"/>
</clipPath>
</defs>
</svg>
