<svg width="26" height="26" viewBox="0 0 26 26" fill="none" xmlns="http://www.w3.org/2000/svg">
<path d="M24.6548 6.938C24.8211 6.39768 24.6548 6 23.855 6H21.2082C20.5341 6 20.224 6.34148 20.0578 6.72187C20.0578 6.72187 18.7097 9.88169 16.8043 11.9306C16.1887 12.5228 15.9056 12.713 15.5686 12.713C15.4023 12.713 15.1462 12.5228 15.1462 11.9825V6.938C15.1462 6.28961 14.9574 6 14.4002 6H10.239C9.81664 6 9.56499 6.30258 9.56499 6.58355C9.56499 7.19736 10.5177 7.34 10.6165 9.06904V12.8211C10.6165 13.6423 10.4637 13.7936 10.1267 13.7936C9.22796 13.7936 7.04403 10.6209 5.74984 6.98987C5.48921 6.28529 5.23307 6 4.55452 6H1.90773C1.15279 6 1 6.34148 1 6.72187C1 7.3962 1.89874 10.7462 5.18363 15.1725C7.37207 18.194 10.4547 19.8323 13.2588 19.8323C14.9439 19.8323 15.1507 19.4692 15.1507 18.8424C15.1507 15.9549 14.9979 15.6826 15.8427 15.6826C16.2336 15.6826 16.9077 15.8728 18.4805 17.3295C20.278 19.0585 20.5746 19.8323 21.5811 19.8323H24.2279C24.9829 19.8323 25.3648 19.4692 25.1446 18.7516C24.6414 17.2431 21.2396 14.1394 21.0868 13.932C20.6959 13.4478 20.8082 13.2317 21.0868 12.7994C21.0913 12.7951 24.3223 8.42065 24.6548 6.938Z" fill="#D9BCA5"/>
</svg>
