<svg width="92" height="80" viewBox="0 0 92 80" fill="none" xmlns="http://www.w3.org/2000/svg">
<circle cx="45.7023" cy="39.6007" r="38.6007" transform="rotate(-90 45.7023 39.6007)" stroke="#D3B6A0" stroke-width="2"/>
<path d="M18.2115 4.35102C12.8482 8.53375 8.5101 13.8852 5.52749 19.9978C2.54488 26.1104 0.996416 32.823 1 39.6244C1.00359 46.4259 2.55914 53.1368 5.5482 59.2463C8.53726 65.3557 12.881 70.7026 18.2487 74.8796" stroke="#D3B6A0" stroke-width="2"/>
<path d="M73.2241 74.8794C78.5873 70.6967 82.9254 65.3453 85.908 59.2327C88.8907 53.1201 90.4391 46.4075 90.4355 39.606C90.432 32.8046 88.8764 26.0936 85.8873 19.9842C82.8983 13.8747 78.5545 8.5279 73.1869 4.35083" stroke="#D3B6A0" stroke-width="2"/>
</svg>
