<svg width="541" height="80" viewBox="0 0 541 80" fill="none" xmlns="http://www.w3.org/2000/svg">
<circle cx="270.492" cy="39.6007" r="38.6007" transform="rotate(-90 270.492 39.6007)" stroke="#D3B6A0" stroke-width="2"/>
<path d="M243.002 4.35098C237.638 8.53371 233.3 13.8851 230.318 19.9977C227.335 26.1103 225.786 32.8229 225.79 39.6244C225.794 46.4258 227.349 53.1368 230.338 59.2463C233.327 65.3557 237.671 70.7025 243.039 74.8796" stroke="#D3B6A0" stroke-width="2"/>
<path d="M298.014 74.8795C303.377 70.6968 307.715 65.3454 310.698 59.2328C313.681 53.1202 315.229 46.4076 315.226 39.6061C315.222 32.8047 313.666 26.0937 310.677 19.9843C307.688 13.8748 303.345 8.528 297.977 4.35093" stroke="#D3B6A0" stroke-width="2"/>
<path d="M1 37.114L232.975 37.114" stroke="#D3B6A0" stroke-width="2" stroke-linecap="square"/>
<path d="M308.024 37.1141L539.999 37.1141" stroke="#D3B6A0" stroke-width="2" stroke-linecap="square"/>
<path d="M1 41.9603L232.975 41.9603" stroke="#D3B6A0" stroke-width="2" stroke-linecap="square"/>
<path d="M308.024 41.9603L539.999 41.9603" stroke="#D3B6A0" stroke-width="2" stroke-linecap="square"/>
</svg>
