<svg width="575" height="678" viewBox="0 0 575 678" fill="none" xmlns="http://www.w3.org/2000/svg">
<g clip-path="url(#clip0_318_10922)">
<circle cx="287.5" cy="338.537" r="286.04" stroke="#D3B6A0" stroke-width="2.91901"/>
<path d="M543.412 138.955C513.046 100.018 474.195 68.5232 429.818 46.8696C385.44 25.2159 336.707 13.9741 287.329 14.0002C237.95 14.0262 189.229 25.3194 144.875 47.0199C100.52 68.7204 61.7023 100.256 31.377 139.225" stroke="#D3B6A0" stroke-width="2.91901"/>
<path d="M31.3762 538.344C61.7427 577.281 100.594 608.776 144.971 630.429C189.348 652.083 238.082 663.325 287.46 663.299C336.838 663.273 385.56 651.98 429.914 630.279C474.268 608.579 513.086 577.043 543.412 538.074" stroke="#D3B6A0" stroke-width="2.91901"/>
<path d="M305.556 0.111176L305.556 64.926" stroke="#D3B6A0" stroke-width="2.91901" stroke-linecap="square"/>
<path d="M305.556 613.074L305.556 677.889" stroke="#D3B6A0" stroke-width="2.91901" stroke-linecap="square"/>
<path d="M270.37 0.111176L270.37 64.926" stroke="#D3B6A0" stroke-width="2.91901" stroke-linecap="square"/>
<path d="M270.37 613.074L270.37 677.889" stroke="#D3B6A0" stroke-width="2.91901" stroke-linecap="square"/>
</g>
<defs>
<clipPath id="clip0_318_10922">
<rect width="575" height="677.778" fill="white" transform="translate(0 0.111176)"/>
</clipPath>
</defs>
</svg>
