<svg width="526" height="77" viewBox="0 0 526 77" fill="none" xmlns="http://www.w3.org/2000/svg">
<circle cx="262.993" cy="38.4986" r="37.7617" transform="rotate(-90 262.993 38.4986)" stroke="#D3B6A0" stroke-width="1.47398"/>
<path d="M236.268 4.22967C231.054 8.296 226.836 13.4985 223.937 19.441C221.037 25.3835 219.532 31.9093 219.535 38.5214C219.539 45.1336 221.051 51.6578 223.957 57.5973C226.863 63.5367 231.086 68.7347 236.304 72.7955" stroke="#D3B6A0" stroke-width="1.47398"/>
<path d="M289.749 72.7956C294.963 68.7293 299.18 63.5268 302.08 57.5843C304.98 51.6418 306.485 45.116 306.481 38.5038C306.478 31.8916 304.966 25.3674 302.06 19.428C299.154 13.4886 294.931 8.29056 289.713 4.22974" stroke="#D3B6A0" stroke-width="1.47398"/>
<path d="M1 36.0808L226.519 36.0808" stroke="#D3B6A0" stroke-width="1.47398" stroke-linecap="square"/>
<path d="M299.48 36.0808L525 36.0808" stroke="#D3B6A0" stroke-width="1.47398" stroke-linecap="square"/>
<path d="M1 40.7924L226.519 40.7924" stroke="#D3B6A0" stroke-width="1.47398" stroke-linecap="square"/>
<path d="M299.48 40.7924L525 40.7924" stroke="#D3B6A0" stroke-width="1.47398" stroke-linecap="square"/>
<rect x="263.092" y="22.2756" width="22.3676" height="22.3676" transform="rotate(45 263.092 22.2756)" fill="#162238"/>
</svg>
