<svg width="66" height="66" viewBox="0 0 66 66" fill="none" xmlns="http://www.w3.org/2000/svg">
<g clip-path="url(#clip0_318_10973)">
<path d="M65.8795 21.0372C65.8795 11.4943 55.0057 0.620437 45.4628 0.620437C43.5705 0.609013 41.708 1.09198 40.0597 2.02154C38.4114 2.95109 37.0344 4.295 36.0651 5.92024C34.8862 7.80399 34.0199 9.86615 33.4999 12.0267C32.9799 9.86615 32.1136 7.80399 30.9347 5.92024C29.9654 4.295 28.5884 2.95109 26.9401 2.02154C25.2918 1.09198 23.4294 0.609013 21.537 0.620437C11.9942 0.620437 1.12032 11.4943 1.12032 21.0372C1.10889 22.9295 1.59186 24.792 2.52142 26.4403C3.45097 28.0886 4.79488 29.4655 6.42012 30.4348C8.30387 31.6138 10.366 32.48 12.5266 33C10.366 33.52 8.30387 34.3863 6.42012 35.5652C4.79488 36.5346 3.45097 37.9115 2.52142 39.5598C1.59186 41.2081 1.10889 43.0706 1.12032 44.9629C1.12032 54.5058 11.9942 65.3796 21.537 65.3796C23.4294 65.3911 25.2918 64.9081 26.9401 63.9785C28.5884 63.049 29.9654 61.7051 30.9347 60.0798C32.1136 58.1961 32.9799 56.1339 33.4999 53.9734C34.0199 56.1339 34.8862 58.1961 36.0651 60.0798C37.0344 61.7051 38.4114 63.049 40.0597 63.9785C41.708 64.9081 43.5705 65.3911 45.4628 65.3796C55.0057 65.3796 65.8795 54.5058 65.8795 44.9629C65.8909 43.0706 65.408 41.2081 64.4784 39.5598C63.5489 37.9115 62.205 36.5346 60.5797 35.5652C58.696 34.3863 56.6338 33.52 54.4733 33C56.6338 32.48 58.696 31.6138 60.5797 30.4348C62.205 29.4655 63.5489 28.0886 64.4784 26.4403C65.408 24.792 65.8909 22.9295 65.8795 21.0372ZM43.3332 31.79C43.0123 31.79 42.7045 31.9175 42.4776 32.1444C42.2507 32.3714 42.1232 32.6791 42.1232 33C42.1232 33.321 42.2507 33.6287 42.4776 33.8556C42.7045 34.0826 43.0123 34.21 43.3332 34.21C50.4561 34.21 55.8204 35.3474 59.2568 37.59C60.5456 38.3388 61.6133 39.4153 62.3515 40.7102C63.0896 42.0052 63.4719 43.4724 63.4595 44.9629C63.4595 53.0296 53.5375 62.9596 45.4628 62.9596C43.9723 62.972 42.5051 62.5897 41.2101 61.8516C39.9152 61.1134 38.8386 60.0457 38.0899 58.7569C35.8473 55.3205 34.7099 49.94 34.7099 42.8333C34.7099 42.5124 34.5824 42.2046 34.3555 41.9777C34.1286 41.7508 33.8208 41.6233 33.4999 41.6233C33.179 41.6233 32.8712 41.7508 32.6443 41.9777C32.4174 42.2046 32.2899 42.5124 32.2899 42.8333C32.2899 49.9562 31.1525 55.3205 28.91 58.7569C28.1612 60.0457 27.0847 61.1134 25.7897 61.8516C24.4948 62.5897 23.0275 62.972 21.537 62.9596C13.4704 62.9596 3.54032 53.0376 3.54032 44.9629C3.52793 43.4724 3.91023 42.0052 4.64837 40.7102C5.38652 39.4153 6.45423 38.3388 7.74305 37.59C11.1794 35.3474 16.5599 34.21 23.6667 34.21C23.9876 34.21 24.2953 34.0826 24.5222 33.8556C24.7492 33.6287 24.8767 33.321 24.8767 33C24.8767 32.6791 24.7492 32.3714 24.5222 32.1444C24.2953 31.9175 23.9876 31.79 23.6667 31.79C16.5438 31.79 11.1794 30.6526 7.74305 28.4101C6.45423 27.6613 5.38652 26.5848 4.64837 25.2898C3.91023 23.9949 3.52793 22.5277 3.54032 21.0372C3.54032 12.9705 13.4623 3.04044 21.537 3.04044C23.0275 3.02805 24.4948 3.41035 25.7897 4.1485C27.0847 4.88664 28.1612 5.95435 28.91 7.24317C31.1525 10.6796 32.2899 16.06 32.2899 23.1668C32.2899 23.4877 32.4174 23.7955 32.6443 24.0224C32.8712 24.2493 33.179 24.3768 33.4999 24.3768C33.8208 24.3768 34.1286 24.2493 34.3555 24.0224C34.5824 23.7955 34.7099 23.4877 34.7099 23.1668C34.7099 16.0439 35.8473 10.6796 38.0899 7.24317C38.8386 5.95435 39.9152 4.88664 41.2101 4.1485C42.5051 3.41035 43.9723 3.02805 45.4628 3.04044C53.5295 3.04044 63.4595 12.9624 63.4595 21.0372C63.4719 22.5277 63.0896 23.9949 62.3515 25.2898C61.6133 26.5848 60.5456 27.6613 59.2568 28.4101C55.8204 30.6526 50.4399 31.79 43.3332 31.79Z" fill="#D9BCA5"/>
<g clip-path="url(#clip1_318_10973)">
<path d="M51.6401 41.3522C55.544 37.4483 55.544 28.5515 51.6401 24.6476C50.8707 23.8688 49.9112 23.3045 48.8566 23.0104C47.802 22.7164 46.6889 22.7029 45.6275 22.9712C44.3746 23.2595 43.1766 23.7488 42.08 24.4199C42.7511 23.3233 43.2404 22.1253 43.5287 20.8724C43.797 19.811 43.7835 18.6979 43.4895 17.6433C43.1955 16.5888 42.6311 15.6292 41.8523 14.8598C37.9484 10.9559 29.0516 10.9559 25.1477 14.8598C24.3689 15.6292 23.8045 16.5888 23.5105 17.6433C23.2165 18.6979 23.203 19.811 23.4713 20.8724C23.7596 22.1253 24.2489 23.3233 24.92 24.4199C23.8234 23.7488 22.6254 23.2595 21.3725 22.9712C20.3111 22.7029 19.198 22.7164 18.1434 23.0104C17.0888 23.3045 16.1293 23.8688 15.3599 24.6476C11.456 28.5515 11.456 37.4483 15.3599 41.3522C16.1293 42.131 17.0888 42.6954 18.1434 42.9894C19.198 43.2834 20.3111 43.2969 21.3725 43.0286C22.6254 42.7403 23.8234 42.2511 24.92 41.5799C24.2489 42.6765 23.7596 43.8745 23.4713 45.1274C23.203 46.1888 23.2165 47.3019 23.5105 48.3565C23.8045 49.4111 24.3689 50.3706 25.1477 51.14C29.0516 55.0439 37.9484 55.0439 41.8523 51.14C42.6311 50.3706 43.1955 49.4111 43.4895 48.3565C43.7835 47.3019 43.797 46.1888 43.5287 45.1274C43.2404 43.8745 42.7511 42.6765 42.08 41.5799C43.1766 42.2511 44.3746 42.7403 45.6275 43.0286C46.6889 43.2969 47.802 43.2834 48.8566 42.9894C49.9112 42.6954 50.8707 42.131 51.6401 41.3522ZM38.0177 36.5276C37.8864 36.3963 37.7084 36.3226 37.5227 36.3226C37.337 36.3226 37.159 36.3963 37.0277 36.5276C36.8964 36.6589 36.8227 36.8369 36.8227 37.0226C36.8227 37.2083 36.8964 37.3863 37.0277 37.5176C39.9416 40.4315 41.6708 43.0913 42.1592 45.4145C42.3801 46.2481 42.3765 47.1253 42.1487 47.957C41.921 48.7887 41.4771 49.5453 40.8623 50.15C37.5623 53.45 29.441 53.4533 26.1377 50.15C25.5229 49.5453 25.079 48.7887 24.8513 47.957C24.6235 47.1253 24.6199 46.2481 24.8408 45.4145C25.3292 43.0913 27.065 40.4249 29.9723 37.5176C30.1036 37.3863 30.1773 37.2083 30.1773 37.0226C30.1773 36.8369 30.1036 36.6589 29.9723 36.5276C29.841 36.3963 29.663 36.3226 29.4773 36.3226C29.2916 36.3226 29.1136 36.3963 28.9823 36.5276C26.0684 39.4415 23.4086 41.1707 21.0854 41.6591C20.2518 41.88 19.3746 41.8764 18.5429 41.6486C17.7112 41.4209 16.9546 40.977 16.3499 40.3622C13.0499 37.0622 13.0466 28.9409 16.3499 25.6376C16.9546 25.0228 17.7112 24.5789 18.5429 24.3512C19.3746 24.1234 20.2518 24.1198 21.0854 24.3407C23.4086 24.8291 26.075 26.5649 28.9823 29.4722C29.1136 29.6035 29.2916 29.6772 29.4773 29.6772C29.663 29.6772 29.841 29.6035 29.9723 29.4722C30.1036 29.3409 30.1773 29.1629 30.1773 28.9772C30.1773 28.7915 30.1036 28.6135 29.9723 28.4822C27.0584 25.5683 25.3292 22.9085 24.8408 20.5853C24.6199 19.7517 24.6235 18.8745 24.8513 18.0428C25.079 17.2111 25.5229 16.4545 26.1377 15.8498C29.4377 12.5498 37.559 12.5465 40.8623 15.8498C41.4771 16.4545 41.921 17.2111 42.1487 18.0428C42.3765 18.8745 42.3801 19.7517 42.1592 20.5853C41.6708 22.9085 39.935 25.5749 37.0277 28.4822C36.8964 28.6135 36.8227 28.7915 36.8227 28.9772C36.8227 29.1629 36.8964 29.3409 37.0277 29.4722C37.159 29.6035 37.337 29.6772 37.5227 29.6772C37.7084 29.6772 37.8864 29.6035 38.0177 29.4722C40.9316 26.5583 43.5914 24.8291 45.9146 24.3407C46.7482 24.1198 47.6254 24.1234 48.4571 24.3512C49.2888 24.5789 50.0454 25.0228 50.6501 25.6376C53.9501 28.9376 53.9534 37.0589 50.6501 40.3622C50.0454 40.977 49.2888 41.4209 48.4571 41.6486C47.6254 41.8764 46.7482 41.88 45.9146 41.6591C43.5914 41.1707 40.925 39.4349 38.0177 36.5276Z" fill="#B3794C"/>
</g>
</g>
<defs>
<clipPath id="clip0_318_10973">
<rect width="66" height="66" fill="white"/>
</clipPath>
<clipPath id="clip1_318_10973">
<rect width="46.6691" height="46.6691" fill="white" transform="translate(33.5) rotate(45)"/>
</clipPath>
</defs>
</svg>
