<svg width="66" height="66" viewBox="0 0 66 66" fill="none" xmlns="http://www.w3.org/2000/svg">
<g clip-path="url(#clip0_318_10959)">
<path d="M43.4557 9.45013L43.6327 9.27361L43.4557 9.45015C45.6688 11.669 46.9718 14.4706 46.9718 16.9296C46.9718 19.1172 45.7451 21.2212 43.4609 22.844L43.4607 22.8441C43.3476 22.9246 43.2123 22.968 43.0735 22.9681C42.9306 22.9681 42.7913 22.9228 42.6759 22.8385C42.5604 22.7542 42.4747 22.6354 42.4312 22.4993C42.3877 22.3631 42.3886 22.2166 42.4338 22.081C42.479 21.9454 42.5662 21.8276 42.6827 21.7448C44.5541 20.4145 45.6258 18.7098 45.6258 16.9289C45.6258 14.8132 44.4156 12.3192 42.5036 10.4019C40.2828 8.17436 37.3905 6.94395 34.3584 6.94395C31.2709 6.94395 27.9757 8.22362 25.3096 10.4437C24.1056 11.4461 23.125 12.5629 22.4438 13.6775C21.7642 14.7895 21.3737 15.9144 21.3737 16.9289C21.3737 18.7085 22.4454 20.4133 24.3169 21.7429C24.4627 21.8464 24.5613 22.0036 24.5912 22.1799C24.621 22.3562 24.5796 22.5371 24.476 22.6829C24.3725 22.8287 24.2153 22.9273 24.039 22.9572C23.8627 22.987 23.6818 22.9456 23.5361 22.8421C21.253 21.2186 20.027 19.1166 20.027 16.9289C20.027 14.5551 21.6521 11.7352 24.4487 9.4077C27.3648 6.98128 30.9805 5.59595 34.3584 5.59595C37.7328 5.59595 40.975 6.96233 43.4557 9.45013ZM12.8597 60.1259V60.3759H13.1097H53.8944H54.1444V60.1259V50.1461C54.1444 44.0021 49.1439 38.9982 42.9965 38.9982H40.3869C40.2081 38.9982 40.0367 38.9272 39.9103 38.8008C39.7839 38.6744 39.7129 38.5029 39.7129 38.3242C39.7129 38.1454 39.7839 37.974 39.9103 37.8476C40.0367 37.7212 40.2081 37.6502 40.3869 37.6502H42.9932C49.8829 37.6502 55.4924 43.2566 55.4924 50.1461V61.0499C55.4924 61.2287 55.4214 61.4001 55.295 61.5265C55.1686 61.6529 54.9972 61.7239 54.8184 61.7239H12.1857C12.007 61.7239 11.8355 61.6529 11.7091 61.5265C11.5827 61.4001 11.5117 61.2287 11.5117 61.0499V50.1461C11.5117 43.2565 17.118 37.6502 24.0076 37.6502H26.616C26.7947 37.6502 26.9661 37.7212 27.0925 37.8476C27.2189 37.974 27.29 38.1454 27.29 38.3242C27.29 38.5029 27.2189 38.6744 27.0925 38.8008C26.9662 38.9272 26.7947 38.9982 26.616 38.9982H24.0076C17.8603 38.9982 12.8597 43.9994 12.8597 50.1461V60.1259Z" fill="#B3794C" stroke="white" stroke-width="0.5"/>
<path d="M33.5014 42.8031L33.4999 42.8031C32.0096 42.8076 30.5429 42.4317 29.2384 41.7111C27.9339 40.9904 26.835 39.9488 26.0455 38.6848L26.0448 38.6837C25.9772 38.5766 25.9414 38.4525 25.9416 38.3258C25.9416 38.2974 25.9434 38.269 25.9469 38.2408C25.9469 38.2408 25.9469 38.2407 25.9469 38.2407L26.8623 30.8925L26.8624 30.8925L26.8629 30.8876C26.8722 30.7985 26.8992 30.7121 26.9424 30.6335C26.9855 30.555 27.0438 30.4858 27.114 30.43C27.1842 30.3743 27.2648 30.3331 27.3511 30.3089C27.4373 30.2847 27.5276 30.2779 27.6165 30.289C27.7055 30.3001 27.7913 30.3288 27.869 30.3734C27.9467 30.4181 28.0147 30.4777 28.0691 30.549C28.1234 30.6203 28.163 30.7016 28.1856 30.7884C28.2081 30.8751 28.2131 30.9655 28.2003 31.0542L28.2002 31.0542L28.1996 31.0591L27.3271 38.0709L27.3153 38.1657L27.3697 38.2442C28.0564 39.235 28.9729 40.0446 30.0408 40.6038C31.1087 41.1631 32.2962 41.4552 33.5017 41.4552C34.7071 41.4552 35.8947 41.1631 36.9626 40.6038C38.0305 40.0446 38.947 39.235 39.6336 38.2442L39.688 38.1657L39.6762 38.0709L38.8007 31.034C38.783 30.8592 38.8342 30.6844 38.9435 30.5468C39.0533 30.4086 39.2129 30.3189 39.388 30.2971C39.5631 30.2753 39.7398 30.3231 39.8801 30.4301C40.0198 30.5367 40.1123 30.6936 40.138 30.8674L41.0558 38.2409L41.0558 38.2411C41.0593 38.2689 41.0611 38.2968 41.0611 38.3248C41.0611 38.4517 41.0252 38.576 40.9576 38.6834L40.9572 38.6841C40.1675 39.9482 39.0683 40.99 37.7636 41.7108C36.459 42.4315 34.992 42.8075 33.5014 42.8031ZM17.5148 59.724C17.3361 59.724 17.1646 59.653 17.0382 59.5266C16.9118 59.4002 16.8408 59.2287 16.8408 59.05V52.5241C16.8408 52.3453 16.9118 52.1739 17.0382 52.0475C17.1646 51.9211 17.3361 51.8501 17.5148 51.8501C17.6936 51.8501 17.865 51.9211 17.9914 52.0475C18.1178 52.1739 18.1888 52.3453 18.1888 52.5241V59.05C18.1888 59.2287 18.1178 59.4002 17.9914 59.5266C17.865 59.653 17.6936 59.724 17.5148 59.724ZM49.4865 59.724C49.3078 59.724 49.1363 59.653 49.0099 59.5266C48.8836 59.4002 48.8125 59.2287 48.8125 59.05V52.5241C48.8125 52.3453 48.8836 52.1739 49.0099 52.0475C49.1363 51.9211 49.3078 51.8501 49.4865 51.8501C49.6653 51.8501 49.8367 51.9211 49.9631 52.0475C50.0895 52.1739 50.1605 52.3453 50.1605 52.5241V59.05C50.1605 59.2287 50.0895 59.4002 49.9631 59.5266C49.8367 59.653 49.6653 59.724 49.4865 59.724Z" fill="#B3794C" stroke="white" stroke-width="0.5"/>
<path d="M33.5006 59.724H33.5009C33.5916 59.7241 33.6813 59.706 33.7648 59.6707C33.8482 59.6354 33.9237 59.5836 33.9867 59.5184L33.9985 59.5062L34.0118 59.4957L41.7849 53.3769C41.8964 53.2547 41.9592 53.0955 41.961 52.9297C41.9628 52.7585 41.8993 52.593 41.7836 52.4669C41.7835 52.4668 41.7835 52.4668 41.7835 52.4668L38.667 49.0751L38.4911 48.8837L38.6893 48.7154L42.9331 45.1131L42.9334 45.1129C43.0364 45.0257 43.1108 44.9095 43.147 44.7795C43.1832 44.6494 43.1796 44.5115 43.1365 44.3836L43.1337 44.3752L43.1315 44.3667L42.0219 40.1013C41.9935 40.0204 41.95 39.9455 41.8935 39.8809C41.8353 39.8142 41.7645 39.7596 41.6852 39.7202C41.6059 39.6809 41.5196 39.6576 41.4313 39.6516C41.343 39.6456 41.2543 39.657 41.1704 39.6853C41.0865 39.7136 41.009 39.7581 40.9423 39.8163C40.8756 39.8745 40.821 39.9453 40.7817 40.0246C40.7423 40.1039 40.719 40.1902 40.713 40.2785C40.707 40.3669 40.7185 40.4555 40.7467 40.5394L40.75 40.5491L40.7524 40.559L41.6664 44.2389L41.7038 44.3895L41.5854 44.4899L37.0842 48.3047C37.015 48.3634 36.9583 48.4355 36.9175 48.5167C36.8768 48.5979 36.8529 48.6865 36.8473 48.7771C36.8417 48.8678 36.8545 48.9587 36.8848 49.0442C36.9152 49.1298 36.9626 49.2084 37.0241 49.2753L37.0242 49.2754L40.2041 52.7371L40.3873 52.9365L40.1739 53.1032L33.6544 58.197L33.5005 58.3173L33.3466 58.197L26.8271 53.1026L26.6138 52.9359L26.7969 52.7365L29.9768 49.2748L29.9769 49.2747C30.0383 49.2079 30.0856 49.1293 30.1159 49.0438C30.1462 48.9582 30.159 48.8674 30.1533 48.7768C30.1477 48.6862 30.1239 48.5977 30.0832 48.5166C30.0425 48.4354 29.9859 48.3633 29.9167 48.3046L25.4188 44.4912L25.3005 44.3908L25.3379 44.2402L26.2519 40.5603L26.2543 40.5507L26.2574 40.5413C26.2856 40.457 26.2969 40.3681 26.2906 40.2795C26.2844 40.1909 26.2608 40.1044 26.2212 40.025C26.1815 39.9455 26.1266 39.8746 26.0596 39.8164C25.9926 39.7581 25.9147 39.7136 25.8305 39.6855C25.7463 39.6573 25.6573 39.646 25.5687 39.6522C25.4801 39.6585 25.3936 39.6821 25.3142 39.7217C25.2347 39.7613 25.1638 39.8163 25.1056 39.8833C25.049 39.9484 25.0055 40.0236 24.9772 40.105L23.8675 44.3707L23.8653 44.3793L23.8625 44.3876C23.8194 44.5155 23.8156 44.6534 23.8518 44.7835C23.8879 44.9135 23.9622 45.0296 24.0651 45.1169C24.0651 45.117 24.0651 45.117 24.0652 45.117L28.3115 48.7152L28.5102 48.8836L28.3339 49.0753L25.2161 52.4636L33.5006 59.724ZM33.5006 59.724C33.4096 59.7239 33.3196 59.7055 33.236 59.6698C33.1523 59.634 33.0768 59.5817 33.0139 59.516L33.0017 59.5033M33.5006 59.724L33.0017 59.5033M33.0017 59.5033L32.9879 59.4924M33.0017 59.5033L32.9879 59.4924M32.9879 59.4924L25.2147 53.3742M32.9879 59.4924L25.2147 53.3742M25.2147 53.3742C25.103 53.252 25.0401 53.0927 25.0384 52.9267C25.0366 52.7554 25.1001 52.5899 25.216 52.4637L25.2147 53.3742ZM33.1377 59.8997C33.023 59.8507 32.9195 59.779 32.8333 59.6889L33.5005 59.974C33.3758 59.9739 33.2524 59.9487 33.1377 59.8997Z" fill="#D9BCA5" stroke="white" stroke-width="0.5"/>
<path d="M28.0096 18.7165C31.141 17.8604 33.7173 15.8603 35.6686 12.7943C35.7356 12.6892 35.8303 12.6047 35.9423 12.5502L35.833 12.3254L35.9423 12.5502C36.0544 12.4957 36.1793 12.4733 36.3033 12.4855C36.4273 12.4978 36.5455 12.5441 36.6447 12.6194C36.744 12.6948 36.8204 12.7961 36.8655 12.9123L36.8655 12.9123L36.8664 12.9146C36.8799 12.9485 37.4331 14.3293 38.4687 15.6044C39.4982 16.8722 41.0658 18.1056 43.0966 17.6724L43.1045 17.6707L43.1123 17.6685C43.2146 17.6397 43.3222 17.6354 43.4265 17.6561C43.5307 17.6768 43.6286 17.7218 43.7121 17.7876L43.8667 17.5911L43.7121 17.7876C43.7956 17.8533 43.8624 17.9378 43.907 18.0343C43.9516 18.1307 43.9728 18.2363 43.9688 18.3425L43.9686 18.3425V18.3519V18.808C43.9686 23.3042 42.9299 27.2 40.9845 30.0862L40.9845 30.0863C39.0506 32.9567 36.3896 34.5122 33.5002 34.5122C30.7108 34.5122 28.1209 33.0686 26.2137 30.4083L26.2137 30.4083C24.3194 27.7665 23.2229 24.1539 23.0521 19.9403L23.0511 19.9174L23.046 19.895C23.0216 19.7874 23.0239 19.6754 23.0529 19.5689C23.0819 19.4624 23.1365 19.3646 23.2121 19.2842C23.2877 19.2037 23.3819 19.1431 23.4864 19.1076C23.5909 19.072 23.7026 19.0627 23.8115 19.0805L23.8315 19.0837H23.8366M28.0096 18.7165L27.9437 18.4753L28.0096 18.7165C28.0096 18.7165 28.0096 18.7165 28.0096 18.7165ZM28.0096 18.7165C26.8327 19.0383 25.7927 19.1298 25.0435 19.1409C24.6688 19.1464 24.3663 19.1318 24.1553 19.1156C24.0497 19.1075 23.9671 19.0991 23.9098 19.0926C23.8811 19.0893 23.859 19.0866 23.8438 19.0846L23.8366 19.0837M23.8366 19.0837H23.8517C23.8434 19.0837 23.8371 19.0833 23.8353 19.0832L23.8293 19.0827L23.8255 19.0823C23.8251 19.0823 23.8254 19.0823 23.8272 19.0825L23.8366 19.0837ZM24.7006 20.4911L24.4284 20.488L24.4485 20.7595C24.7102 24.3065 25.6852 27.3587 27.3089 29.6226C28.9351 31.8901 31.1312 33.1642 33.5002 33.1642C35.9577 33.1642 38.2158 31.785 39.8686 29.3322C41.5723 26.8063 42.5334 23.2821 42.6172 19.3671L42.6228 19.1057L42.3615 19.1118C40.6195 19.1524 38.9572 18.3017 37.5074 16.5621C37.0622 16.0227 36.6642 15.446 36.3178 14.8383L36.1315 14.5115L35.9023 14.8099C33.3748 18.1009 30.4136 19.472 28.2727 20.0415L28.2723 20.0416C27.1078 20.3536 25.9061 20.5048 24.7006 20.4911Z" fill="#B3794C" stroke="white" stroke-width="0.5"/>
</g>
<defs>
<clipPath id="clip0_318_10959">
<rect width="66" height="66" fill="white"/>
</clipPath>
</defs>
</svg>
