<svg width="66" height="66" viewBox="0 0 66 66" fill="none" xmlns="http://www.w3.org/2000/svg">
<g clip-path="url(#clip0_318_10966)">
<path d="M15.6914 45.0525V45.2355V49.0832C15.6914 49.124 15.7142 49.2094 15.812 49.348C15.9062 49.4815 16.0519 49.6391 16.2507 49.8185C16.6478 50.1768 17.2288 50.5974 17.953 51.0583C19.3683 51.9589 21.158 53.0813 22.9326 54.1828L22.8007 54.3952L22.9326 54.1828C23.8949 54.7802 25.8839 55.9938 27.8951 57.0574C28.901 57.5894 29.9081 58.0816 30.7926 58.4402C31.6872 58.8028 32.423 59.0145 32.8998 59.0147L15.6914 45.0525ZM15.6914 45.0525L15.517 44.9972L11.709 43.7889V32.5576M15.6914 45.0525L11.709 32.5576M11.709 32.5576H15.2178H15.5041L15.4655 32.2739L12.9949 14.1252C13.2782 13.4003 13.8771 12.8899 14.7522 12.6523L14.7523 12.6522L32.9002 7.71003L51.048 12.6522L51.0482 12.6523C51.9232 12.8899 52.5221 13.4003 52.8054 14.1252L50.3348 32.2739L50.2962 32.5576H50.5826H54.0913V43.7889L50.2834 44.9972L50.109 45.0525V45.2355V49.0832C50.109 49.124 50.0861 49.2094 49.9883 49.3481C49.8941 49.4816 49.7483 49.6392 49.5495 49.8186C49.1524 50.177 48.5714 50.5976 47.8474 51.0582C46.193 52.1084 44.5332 53.15 42.8678 54.1827L42.8678 54.1828C41.9053 54.7802 39.9162 55.9938 37.905 57.0574C36.8991 57.5894 35.8919 58.0816 35.0073 58.4402C34.1127 58.8028 33.3769 59.0145 32.9 59.0147L11.709 32.5576ZM32.9659 9.58222L32.8999 9.56413L32.8338 9.58222L15.0661 14.4487L14.8549 14.5065L14.8844 14.7235L17.5573 34.3561H13.7571H13.5071V34.6061V42.2912V42.4742L13.6815 42.5295L17.4895 43.7379V47.9833C17.4895 48.2881 17.678 48.561 17.9171 48.7979C18.1634 49.0418 18.5087 49.2915 18.9144 49.5496C20.0393 50.2654 21.8447 51.3953 23.8807 52.6591C24.56 53.0808 26.4456 54.2154 28.3331 55.2454C29.2766 55.7602 30.2243 56.2509 31.0237 56.6135C31.4232 56.7948 31.7895 56.9458 32.102 57.0519C32.4075 57.1557 32.6858 57.2254 32.8996 57.2254C33.1134 57.2254 33.3917 57.1557 33.6972 57.0519C34.0097 56.9458 34.376 56.7948 34.7756 56.6135C35.575 56.2509 36.5227 55.7602 37.4662 55.2454C39.3538 54.2154 41.2394 53.0808 41.9185 52.659C43.9542 51.3953 45.7599 50.2654 46.8848 49.5496C47.2905 49.2915 47.6358 49.0418 47.8821 48.7979C48.1213 48.561 48.3097 48.2881 48.3097 47.9833V43.7379L52.1177 42.5295L52.2921 42.4742V42.2912V34.6061V34.3561H52.0421H48.2422L50.9151 14.7235L50.9446 14.5065L50.7334 14.4487L32.9659 9.58222Z" fill="#D9BCA5" stroke="white" stroke-width="0.5"/>
<path d="M32.8996 3.63346L32.9654 3.65139L52.0806 8.86191C53.4128 9.22451 54.7971 10.1788 55.725 11.4074C56.4774 12.4036 56.9303 13.5979 56.6969 14.7751L54.8073 28.6104H57.7876H58.0376V28.8604V46.4929V46.6759L57.8632 46.7312L54.0552 47.9395V50.1176C54.0552 50.3458 53.9769 50.5781 53.853 50.8064C53.7283 51.036 53.5499 51.2758 53.3305 51.5232C52.8921 52.0177 52.2691 52.5662 51.5222 53.1529L51.5221 53.1529C47.7447 56.1193 41.9067 59.5832 37.5236 61.534M32.8996 3.63346L37.422 61.3056M32.8996 3.63346L32.8339 3.65139M32.8996 3.63346L32.8339 3.65139M37.5236 61.534L37.422 61.3056M37.5236 61.534C37.5236 61.534 37.5236 61.534 37.5236 61.534L37.422 61.3056M37.5236 61.534C36.5474 61.9686 35.6439 62.3253 34.8625 62.5737C34.086 62.8206 33.4112 62.9669 32.8993 62.9669C32.3875 62.9669 31.7128 62.8206 30.9363 62.5737C30.1548 62.3253 29.2514 61.9686 28.275 61.534C23.8922 59.5832 18.0539 56.1193 14.2765 53.1529L14.2765 53.1529C13.5297 52.5662 12.9068 52.0177 12.4684 51.5232C12.249 51.2758 12.0706 51.036 11.946 50.8064C11.822 50.5781 11.7437 50.3458 11.7437 50.1176V47.9395M37.422 61.3056C35.4798 62.1703 33.8444 62.7169 32.8993 62.7169C31.9543 62.7169 30.3191 62.1703 28.3767 61.3056C24.0114 59.3626 18.1911 55.9091 14.4309 52.9563C12.9459 51.7896 11.9937 50.8052 11.9937 50.1176V47.7565M11.7437 47.9395L11.9181 47.9948L11.9937 47.7565M11.7437 47.9395V47.7565H11.9937M11.7437 47.9395L8.01133 46.4929L11.9937 47.7565M32.8339 3.65139L13.7183 8.86192L32.8339 3.65139ZM13.2482 7.13568L13.2483 7.13566L32.8996 1.77902L52.5512 7.13566L52.5513 7.13568C54.2358 7.59442 55.9978 8.79054 57.1579 10.326C58.2091 11.7178 58.78 13.3838 58.4618 15.0725L58.4614 15.0724L58.4597 15.085L56.8996 26.5282L56.8609 26.8119H57.1473H59.8363V47.9906L56.0283 49.1989L55.854 49.2542V49.4372V50.1176C55.854 50.8025 55.5612 51.5147 55.003 52.2629C54.4449 53.0108 53.6346 53.7769 52.6321 54.5641L52.7865 54.7607L52.6321 54.5641C48.7368 57.6233 42.7787 61.1553 38.2545 63.1689L38.3562 63.3973L38.2545 63.1689C36.0283 64.16 34.1149 64.765 32.8996 64.765C31.6844 64.765 29.7709 64.1598 27.5447 63.1689C23.0205 61.1553 17.0624 57.6233 13.1671 54.5641C12.1647 53.7769 11.3544 53.0108 10.7963 52.2629C10.238 51.5147 9.94526 50.8025 9.94526 50.1176V49.4372V49.2542L9.77087 49.1989L5.96289 47.9906V26.8122H8.65188H8.93827L8.89958 26.5285L7.3395 15.0853L7.33981 15.0853L7.33746 15.0728C7.01927 13.3841 7.5901 11.7184 8.64135 10.3263C9.80139 8.79055 11.5637 7.59442 13.2482 7.13568ZM54.7732 28.8604H54.5209L54.555 28.6104L54.7732 28.8604ZM11.2439 28.6104L11.2781 28.8604H11.0257L10.9916 28.6104H11.2439ZM9.102 14.7751C9.10252 14.7777 9.10304 14.7803 9.10356 14.7829L9.34867 14.7337L9.10097 14.7675L9.102 14.7751Z" fill="#B3794C" stroke="white" stroke-width="0.5"/>
</g>
<defs>
<clipPath id="clip0_318_10966">
<rect width="66" height="66" fill="white"/>
</clipPath>
</defs>
</svg>
