<svg width="66" height="66" viewBox="0 0 66 66" fill="none" xmlns="http://www.w3.org/2000/svg">
<g clip-path="url(#clip0_318_10980)">
<g clip-path="url(#clip1_318_10980)">
<mask id="path-1-inside-1_318_10980" fill="white">
<path d="M63.5644 46.5093H1.43494C1.31127 46.5078 1.18854 46.5309 1.07387 46.5773C0.959201 46.6236 0.854865 46.6922 0.766907 46.7792C0.678949 46.8661 0.609118 46.9697 0.561458 47.0838C0.513798 47.1979 0.489258 47.3204 0.489258 47.4441C0.489258 47.5677 0.513798 47.6902 0.561458 47.8043C0.609118 47.9184 0.678949 48.022 0.766907 48.1089C0.854865 48.1959 0.959201 48.2645 1.07387 48.3108C1.18854 48.3572 1.31127 48.3803 1.43494 48.3789H63.5644C63.6881 48.3803 63.8108 48.3572 63.9255 48.3108C64.0402 48.2645 64.1445 48.1959 64.2325 48.1089C64.3204 48.022 64.3903 47.9184 64.4379 47.8043C64.4856 47.6902 64.5101 47.5677 64.5101 47.4441C64.5101 47.3204 64.4856 47.1979 64.4379 47.0838C64.3903 46.9697 64.3204 46.8661 64.2325 46.7792C64.1445 46.6922 64.0402 46.6236 63.9255 46.5773C63.8108 46.5309 63.6881 46.5078 63.5644 46.5093ZM0.499943 40.1714C0.499959 40.2942 0.524157 40.4157 0.571156 40.5292C0.618154 40.6426 0.687031 40.7456 0.773855 40.8324C0.860679 40.9192 0.963748 40.988 1.07718 41.035C1.19061 41.0819 1.31217 41.1061 1.43494 41.106H63.5644C63.8124 41.106 64.0501 41.0076 64.2255 40.8323C64.4008 40.6571 64.4993 40.4193 64.4994 40.1714C64.4994 39.9235 64.4009 39.6857 64.2256 39.5103C64.0502 39.335 63.8124 39.2365 63.5644 39.2364H60.1322L64.4609 20.0763C64.5907 19.5012 64.3778 18.8908 63.9179 18.5217L54.8505 11.243C54.7369 11.1513 54.6061 11.0832 54.4659 11.0428C54.3256 11.0024 54.1786 10.9904 54.0336 11.0077C53.8887 11.0238 53.7485 11.0687 53.6212 11.1398C53.4939 11.2109 53.3821 11.3067 53.2924 11.4217L49.5108 16.2302L46.0342 14.2669C45.866 14.1726 45.6762 14.1237 45.4834 14.125C45.2906 14.1264 45.1014 14.1779 44.9346 14.2746C44.7683 14.3723 44.6304 14.5116 44.5344 14.6789C44.4384 14.8461 44.3877 15.0355 44.3873 15.2284V18.5578H20.612V15.2282C20.612 14.8371 20.402 14.472 20.0648 14.2746C19.8981 14.1778 19.709 14.1262 19.5163 14.1248C19.3235 14.1235 19.1337 14.1724 18.9657 14.2669L15.4886 16.2302L11.7074 11.4222C11.6176 11.3072 11.5057 11.2113 11.3784 11.1401C11.251 11.0689 11.1107 11.0239 10.9657 11.0077C10.8206 10.9904 10.6736 11.0024 10.5331 11.0429C10.3927 11.0834 10.2619 11.1515 10.1482 11.2434L1.08106 18.5222C0.621567 18.8915 0.408193 19.5013 0.538067 20.0765L4.86666 39.2366H1.43494C1.31215 39.2365 1.19056 39.2607 1.07711 39.3077C0.963664 39.3547 0.860584 39.4235 0.773759 39.5104C0.686934 39.5972 0.618063 39.7003 0.571081 39.8137C0.524099 39.9272 0.499926 40.0486 0.499943 40.1714ZM46.2575 16.5407L54.7833 21.3552L53.6816 32.9064C53.6692 33.0361 53.684 33.1671 53.7251 33.2908C53.7663 33.4145 53.8329 33.5283 53.9206 33.6247C54.0084 33.7211 54.1153 33.7981 54.2346 33.8507C54.3539 33.9034 54.4829 33.9304 54.6133 33.9302C54.8457 33.93 55.0698 33.8432 55.2417 33.6868C55.4136 33.5303 55.521 33.3154 55.543 33.084L56.664 21.3288C56.6925 21.0298 56.6337 20.7289 56.4948 20.4625C56.3559 20.1961 56.1429 19.9757 55.8814 19.8278L51.1583 17.1609L54.2836 13.1859L62.5936 19.8566L58.2157 39.2364H54.956L55.1739 36.9532C55.193 36.7088 55.1153 36.4666 54.9575 36.279C54.7998 36.0913 54.5747 35.973 54.3306 35.9497C54.0866 35.9264 53.8431 35.9999 53.6527 36.1543C53.4623 36.3088 53.3402 36.5318 53.3127 36.7755L53.0777 39.2364H48.5333V20.1341C48.5333 19.2648 47.8262 18.5583 46.9576 18.5583H46.2575V16.5407ZM18.7421 18.5578H17.9988C17.1297 18.5578 16.4232 19.2648 16.4232 20.1341V22.7707C16.4272 23.016 16.5275 23.2499 16.7024 23.422C16.8773 23.5941 17.1128 23.6905 17.3582 23.6905C17.6035 23.6905 17.8391 23.5941 18.014 23.422C18.1889 23.2499 18.2892 23.016 18.2932 22.7707V20.428H46.6633V39.2364H18.2933V26.6978C18.2905 26.4517 18.1907 26.2166 18.0156 26.0436C17.8406 25.8705 17.6044 25.7735 17.3582 25.7735C17.1121 25.7735 16.8759 25.8705 16.7009 26.0436C16.5258 26.2166 16.426 26.4517 16.4232 26.6978V39.2364H11.9217L10.2161 21.3552L18.7419 16.5407L18.7421 18.5578ZM2.40555 19.8566L10.7155 13.1858L13.8411 17.161L9.118 19.8278C8.85655 19.9758 8.6435 20.1962 8.50454 20.4626C8.36558 20.7289 8.30666 21.0297 8.33488 21.3288L10.0434 39.2364H6.78364L2.40555 19.8566ZM26.2869 69.0618C26.1641 69.0618 26.0425 69.0859 25.9291 69.1329C25.8157 69.1798 25.7126 69.2487 25.6258 69.3355C25.539 69.4223 25.4701 69.5253 25.4231 69.6387C25.3761 69.7521 25.3519 69.8737 25.3519 69.9964V73.508C25.3559 73.7534 25.4562 73.9873 25.6311 74.1594C25.806 74.3314 26.0415 74.4279 26.2869 74.4279C26.5322 74.4279 26.7678 74.3314 26.9427 74.1594C27.1176 73.9873 27.2178 73.7534 27.2219 73.508V69.9964C27.2218 69.7485 27.1232 69.5108 26.9479 69.3355C26.7725 69.1603 26.5348 69.0618 26.2869 69.0618Z"/>
</mask>
<path d="M63.5644 46.5093H1.43494C1.31127 46.5078 1.18854 46.5309 1.07387 46.5773C0.959201 46.6236 0.854865 46.6922 0.766907 46.7792C0.678949 46.8661 0.609118 46.9697 0.561458 47.0838C0.513798 47.1979 0.489258 47.3204 0.489258 47.4441C0.489258 47.5677 0.513798 47.6902 0.561458 47.8043C0.609118 47.9184 0.678949 48.022 0.766907 48.1089C0.854865 48.1959 0.959201 48.2645 1.07387 48.3108C1.18854 48.3572 1.31127 48.3803 1.43494 48.3789H63.5644C63.6881 48.3803 63.8108 48.3572 63.9255 48.3108C64.0402 48.2645 64.1445 48.1959 64.2325 48.1089C64.3204 48.022 64.3903 47.9184 64.4379 47.8043C64.4856 47.6902 64.5101 47.5677 64.5101 47.4441C64.5101 47.3204 64.4856 47.1979 64.4379 47.0838C64.3903 46.9697 64.3204 46.8661 64.2325 46.7792C64.1445 46.6922 64.0402 46.6236 63.9255 46.5773C63.8108 46.5309 63.6881 46.5078 63.5644 46.5093ZM0.499943 40.1714C0.499959 40.2942 0.524157 40.4157 0.571156 40.5292C0.618154 40.6426 0.687031 40.7456 0.773855 40.8324C0.860679 40.9192 0.963748 40.988 1.07718 41.035C1.19061 41.0819 1.31217 41.1061 1.43494 41.106H63.5644C63.8124 41.106 64.0501 41.0076 64.2255 40.8323C64.4008 40.6571 64.4993 40.4193 64.4994 40.1714C64.4994 39.9235 64.4009 39.6857 64.2256 39.5103C64.0502 39.335 63.8124 39.2365 63.5644 39.2364H60.1322L64.4609 20.0763C64.5907 19.5012 64.3778 18.8908 63.9179 18.5217L54.8505 11.243C54.7369 11.1513 54.6061 11.0832 54.4659 11.0428C54.3256 11.0024 54.1786 10.9904 54.0336 11.0077C53.8887 11.0238 53.7485 11.0687 53.6212 11.1398C53.4939 11.2109 53.3821 11.3067 53.2924 11.4217L49.5108 16.2302L46.0342 14.2669C45.866 14.1726 45.6762 14.1237 45.4834 14.125C45.2906 14.1264 45.1014 14.1779 44.9346 14.2746C44.7683 14.3723 44.6304 14.5116 44.5344 14.6789C44.4384 14.8461 44.3877 15.0355 44.3873 15.2284V18.5578H20.612V15.2282C20.612 14.8371 20.402 14.472 20.0648 14.2746C19.8981 14.1778 19.709 14.1262 19.5163 14.1248C19.3235 14.1235 19.1337 14.1724 18.9657 14.2669L15.4886 16.2302L11.7074 11.4222C11.6176 11.3072 11.5057 11.2113 11.3784 11.1401C11.251 11.0689 11.1107 11.0239 10.9657 11.0077C10.8206 10.9904 10.6736 11.0024 10.5331 11.0429C10.3927 11.0834 10.2619 11.1515 10.1482 11.2434L1.08106 18.5222C0.621567 18.8915 0.408193 19.5013 0.538067 20.0765L4.86666 39.2366H1.43494C1.31215 39.2365 1.19056 39.2607 1.07711 39.3077C0.963664 39.3547 0.860584 39.4235 0.773759 39.5104C0.686934 39.5972 0.618063 39.7003 0.571081 39.8137C0.524099 39.9272 0.499926 40.0486 0.499943 40.1714ZM46.2575 16.5407L54.7833 21.3552L53.6816 32.9064C53.6692 33.0361 53.684 33.1671 53.7251 33.2908C53.7663 33.4145 53.8329 33.5283 53.9206 33.6247C54.0084 33.7211 54.1153 33.7981 54.2346 33.8507C54.3539 33.9034 54.4829 33.9304 54.6133 33.9302C54.8457 33.93 55.0698 33.8432 55.2417 33.6868C55.4136 33.5303 55.521 33.3154 55.543 33.084L56.664 21.3288C56.6925 21.0298 56.6337 20.7289 56.4948 20.4625C56.3559 20.1961 56.1429 19.9757 55.8814 19.8278L51.1583 17.1609L54.2836 13.1859L62.5936 19.8566L58.2157 39.2364H54.956L55.1739 36.9532C55.193 36.7088 55.1153 36.4666 54.9575 36.279C54.7998 36.0913 54.5747 35.973 54.3306 35.9497C54.0866 35.9264 53.8431 35.9999 53.6527 36.1543C53.4623 36.3088 53.3402 36.5318 53.3127 36.7755L53.0777 39.2364H48.5333V20.1341C48.5333 19.2648 47.8262 18.5583 46.9576 18.5583H46.2575V16.5407ZM18.7421 18.5578H17.9988C17.1297 18.5578 16.4232 19.2648 16.4232 20.1341V22.7707C16.4272 23.016 16.5275 23.2499 16.7024 23.422C16.8773 23.5941 17.1128 23.6905 17.3582 23.6905C17.6035 23.6905 17.8391 23.5941 18.014 23.422C18.1889 23.2499 18.2892 23.016 18.2932 22.7707V20.428H46.6633V39.2364H18.2933V26.6978C18.2905 26.4517 18.1907 26.2166 18.0156 26.0436C17.8406 25.8705 17.6044 25.7735 17.3582 25.7735C17.1121 25.7735 16.8759 25.8705 16.7009 26.0436C16.5258 26.2166 16.426 26.4517 16.4232 26.6978V39.2364H11.9217L10.2161 21.3552L18.7419 16.5407L18.7421 18.5578ZM2.40555 19.8566L10.7155 13.1858L13.8411 17.161L9.118 19.8278C8.85655 19.9758 8.6435 20.1962 8.50454 20.4626C8.36558 20.7289 8.30666 21.0297 8.33488 21.3288L10.0434 39.2364H6.78364L2.40555 19.8566ZM26.2869 69.0618C26.1641 69.0618 26.0425 69.0859 25.9291 69.1329C25.8157 69.1798 25.7126 69.2487 25.6258 69.3355C25.539 69.4223 25.4701 69.5253 25.4231 69.6387C25.3761 69.7521 25.3519 69.8737 25.3519 69.9964V73.508C25.3559 73.7534 25.4562 73.9873 25.6311 74.1594C25.806 74.3314 26.0415 74.4279 26.2869 74.4279C26.5322 74.4279 26.7678 74.3314 26.9427 74.1594C27.1176 73.9873 27.2178 73.7534 27.2219 73.508V69.9964C27.2218 69.7485 27.1232 69.5108 26.9479 69.3355C26.7725 69.1603 26.5348 69.0618 26.2869 69.0618Z" fill="#B3794C" stroke="white" mask="url(#path-1-inside-1_318_10980)"/>
<mask id="path-2-inside-2_318_10980" fill="white">
<path d="M61.1202 62.3068C61.1435 62.1374 61.1563 61.9656 61.1563 61.7933C61.1563 60.0803 60.0234 58.6492 58.4507 58.2108V57.0214C58.4507 55.0985 56.9586 53.5194 55.0719 53.3789C55.0953 53.2094 55.1074 53.0375 55.1074 52.8651C55.1074 50.8134 53.4375 49.1439 51.3854 49.1439C49.3336 49.1439 47.6641 50.8129 47.6641 52.8651C47.6641 53.0345 47.6754 53.2035 47.6984 53.3705C46.6641 53.4013 45.7365 53.8631 45.09 54.5834C44.4777 53.9013 43.6134 53.451 42.6452 53.3788C42.669 53.2094 42.6814 53.0375 42.6814 52.865C42.6814 50.8134 41.0119 49.1439 38.9602 49.1439C36.9075 49.1439 35.2375 50.8129 35.2375 52.8651C35.2375 53.0345 35.2492 53.2035 35.2722 53.3705C34.238 53.4013 33.3107 53.8631 32.6642 54.5834C32.0525 53.9018 31.1883 53.4515 30.2205 53.3788C30.2439 53.2094 30.2561 53.0375 30.2561 52.865C30.2561 50.8134 28.5862 49.1439 26.5339 49.1439C24.4813 49.1439 22.8115 50.8134 22.8115 52.8651C22.8115 53.0351 22.8231 53.2035 22.8461 53.3705C21.8118 53.4013 20.8846 53.8631 20.2386 54.5834C19.6264 53.9013 18.7621 53.451 17.7942 53.3788C17.8177 53.2094 17.83 53.0375 17.83 52.865C17.83 50.8134 16.16 49.1439 14.1078 49.1439C12.055 49.1439 10.3852 50.8134 10.3852 52.8651C10.3852 53.0351 10.3969 53.2035 10.4198 53.3705C8.45644 53.4291 6.87733 55.0437 6.87733 57.0214V58.1707C5.23484 58.5575 4.00772 60.0345 4.00772 61.7932C4.00772 61.9627 4.01897 62.1317 4.04197 62.2982C2.07911 62.3572 0.5 63.9709 0.5 65.9485V73.5075C0.504012 73.7528 0.604284 73.9867 0.779192 74.1588C0.954101 74.3309 1.18963 74.4273 1.43499 74.4273C1.68035 74.4273 1.91588 74.3309 2.09079 74.1588C2.2657 73.9867 2.36597 73.7528 2.36999 73.5075V65.9485C2.36999 64.9652 3.16998 64.1653 4.15335 64.1653H5.33296C5.33634 64.1653 5.33984 64.1658 5.34271 64.1658C5.34571 64.1658 5.34909 64.1653 5.35196 64.1653H11.143C12.1264 64.1653 12.9262 64.9652 12.9262 65.9485V73.5075C12.9247 73.6312 12.9478 73.7539 12.9942 73.8685C13.0405 73.9832 13.1091 74.0876 13.1961 74.1755C13.283 74.2635 13.3866 74.3333 13.5007 74.381C13.6148 74.4286 13.7373 74.4532 13.861 74.4532C13.9846 74.4532 14.1071 74.4286 14.2212 74.381C14.3353 74.3333 14.4389 74.2635 14.5258 74.1755C14.6128 74.0876 14.6814 73.9832 14.7277 73.8685C14.7741 73.7539 14.7972 73.6312 14.7958 73.5075V65.9485C14.7958 64.9652 15.5961 64.1653 16.579 64.1653H22.535C22.538 64.1653 22.5413 64.1658 22.5442 64.1658C22.5477 64.1658 22.5506 64.1653 22.5541 64.1653H23.5691C24.5521 64.1653 25.3518 64.9652 25.3518 65.9485C25.3518 66.4002 25.6727 66.7772 26.0984 66.8645C26.2344 66.8926 26.3749 66.8901 26.5098 66.8571C26.6447 66.824 26.7705 66.7614 26.8781 66.6737C26.9858 66.586 27.0725 66.4754 27.1321 66.3499C27.1916 66.2245 27.2225 66.0874 27.2224 65.9485C27.2224 64.9655 28.0223 64.1658 29.0052 64.1658H35.9948C36.9777 64.1658 37.7776 64.9655 37.7776 65.9485V73.5075C37.7776 74.0241 38.196 74.4425 38.7126 74.4425C39.2292 74.4425 39.6476 74.0241 39.6476 73.5075V65.9485C39.6476 64.9655 40.4479 64.1658 41.4313 64.1658H48.421C49.4039 64.1658 50.2037 64.9655 50.2037 65.9485V73.5075C50.2077 73.7528 50.308 73.9867 50.4829 74.1588C50.6578 74.3309 50.8934 74.4273 51.1387 74.4273C51.3841 74.4273 51.6196 74.3309 51.7945 74.1588C51.9694 73.9867 52.0697 73.7528 52.0737 73.5075V65.9485C52.0737 64.9655 52.8741 64.1658 53.8575 64.1658H60.8473C61.8301 64.1658 62.6299 64.9655 62.6299 65.9485V73.5075C62.6339 73.7528 62.7342 73.9867 62.9091 74.1588C63.084 74.3309 63.3195 74.4273 63.5649 74.4273C63.8102 74.4273 64.0458 74.3309 64.2207 74.1588C64.3956 73.9867 64.4959 73.7528 64.4999 73.5075V65.9485C64.4995 64.0261 63.0069 62.4474 61.1202 62.3068ZM59.2862 61.7933C59.2862 61.9632 59.2629 62.1323 59.2168 62.2958H55.6504C55.6046 62.1323 55.5812 61.9632 55.5811 61.7933C55.5811 60.7718 56.4122 59.9412 57.4336 59.9412H57.4493C57.4628 59.9421 57.4763 59.9428 57.4898 59.9432C58.497 59.9715 59.2862 60.7846 59.2862 61.7933ZM51.3854 51.014C52.4068 51.014 53.2378 51.8446 53.2378 52.8651C53.2378 53.036 53.214 53.205 53.1681 53.3676H49.6036C49.5574 53.2041 49.5338 53.0351 49.5337 52.8651C49.5337 51.8446 50.3644 51.014 51.3854 51.014ZM46.7906 62.2957H43.2257C43.1796 62.1322 43.1563 61.9631 43.1564 61.7932C43.1564 60.7718 43.9869 59.9412 45.0075 59.9412H45.0232C45.0366 59.9421 45.0501 59.9428 45.0637 59.9432C46.0709 59.9715 46.8599 60.7845 46.8599 61.7937C46.8599 61.9642 46.8365 62.1331 46.7906 62.2957ZM38.9602 51.014C39.9812 51.014 40.8112 51.8446 40.8112 52.8651C40.8113 53.035 40.788 53.2041 40.7419 53.3676H37.1775C37.1312 53.2041 37.1077 53.0351 37.1076 52.8651C37.1076 51.8446 37.9388 51.014 38.9602 51.014ZM34.3645 62.2957H30.7995C30.7535 62.1322 30.7301 61.9631 30.7303 61.7932C30.7303 60.7718 31.5613 59.9412 32.5827 59.9412H32.5984C32.6116 59.9422 32.6252 59.9427 32.6384 59.9432C33.6452 59.9715 34.4339 60.7845 34.4339 61.7937C34.4339 61.9642 34.4104 62.1331 34.3645 62.2957ZM26.5339 51.014C27.5554 51.014 28.3864 51.8446 28.3864 52.8651C28.3865 53.035 28.3632 53.2041 28.3172 53.3676H24.7513C24.705 53.2041 24.6815 53.0351 24.6814 52.8651C24.6814 51.8446 25.5126 51.014 26.5339 51.014ZM21.9398 62.2952H18.3734C18.3273 62.1319 18.304 61.963 18.3041 61.7933C18.3041 60.7718 19.1351 59.9412 20.1566 59.9412H20.1703C20.1845 59.9422 20.1986 59.9427 20.2122 59.9432C21.2196 59.9715 22.0086 60.7845 22.0086 61.7937C22.0088 61.9632 21.9857 62.132 21.9398 62.2952ZM14.1078 51.014C15.1293 51.014 15.9603 51.8446 15.9603 52.8651C15.9603 53.036 15.9365 53.205 15.891 53.3676H12.3252C12.2791 53.2041 12.2557 53.035 12.2558 52.8651C12.2558 51.8446 13.0863 51.014 14.1078 51.014ZM7.73032 59.9412H7.74407C7.75819 59.9422 7.77244 59.9427 7.78607 59.9432C8.79344 59.9715 9.58293 60.7845 9.58293 61.7937C9.58293 61.9642 9.55905 62.1331 9.51355 62.2952H5.94746C5.90132 62.132 5.87793 61.9633 5.87796 61.7937C5.87796 60.7718 6.70895 59.9412 7.73032 59.9412ZM13.8608 63.5111C13.2489 62.8289 12.3847 62.3787 11.4169 62.3064C11.4403 62.1371 11.4525 61.9656 11.4525 61.7933C11.4525 60.0803 10.3203 58.6492 8.74756 58.2108V57.0214C8.74756 56.038 9.5473 55.2376 10.5302 55.2376H17.5214C18.5042 55.2376 19.3041 56.038 19.3041 57.0214V58.1707C17.661 58.5575 16.434 60.0345 16.434 61.7937C16.434 61.9632 16.4456 62.1317 16.4686 62.2982C15.4345 62.3289 14.5073 62.7908 13.8608 63.5111ZM26.2874 63.5111C25.6751 62.8294 24.8108 62.3787 23.8431 62.3064C23.8666 62.1371 23.8787 61.9656 23.8787 61.7933C23.8787 60.08 22.7465 58.6487 21.1737 58.2108V57.0214C21.1737 56.038 21.9735 55.2376 22.9563 55.2376H29.9461C30.9295 55.2376 31.7298 56.038 31.7298 57.0214V58.1707C30.0873 58.5575 28.8602 60.0345 28.8602 61.7932C28.8602 61.9632 28.8719 62.1317 28.8943 62.2987C27.8605 62.3294 26.9334 62.7912 26.2874 63.5111ZM38.7121 63.5111C38.1003 62.8294 37.2361 62.3792 36.2678 62.3069C36.2916 62.1374 36.304 61.9657 36.304 61.7932C36.304 60.0803 35.1721 58.6492 33.5999 58.2107V57.0214C33.5999 56.038 34.3996 55.2376 35.3826 55.2376H42.3722C43.3552 55.2376 44.1549 56.038 44.1549 57.0214V58.1707C42.5128 58.5575 41.2863 60.0345 41.2863 61.7932C41.2863 61.9632 41.2981 62.1317 41.3209 62.2987C40.2868 62.3294 39.3584 62.7912 38.7121 63.5111ZM51.1382 63.5111C50.5265 62.8294 49.6622 62.3792 48.694 62.3069C48.7174 62.1374 48.7301 61.9657 48.7301 61.7932C48.7301 60.0803 47.5973 58.6492 46.0245 58.2107V57.0214C46.0245 56.0375 46.8249 55.2376 47.8088 55.2376H54.7983C55.7812 55.2376 56.5809 56.0375 56.5809 57.0214V58.1707C54.938 58.5575 53.711 60.0345 53.711 61.7932C53.711 61.9632 53.7226 62.1317 53.7456 62.2987C52.7118 62.3299 51.7847 62.7918 51.1382 63.5111Z"/>
</mask>
<path d="M61.1202 62.3068C61.1435 62.1374 61.1563 61.9656 61.1563 61.7933C61.1563 60.0803 60.0234 58.6492 58.4507 58.2108V57.0214C58.4507 55.0985 56.9586 53.5194 55.0719 53.3789C55.0953 53.2094 55.1074 53.0375 55.1074 52.8651C55.1074 50.8134 53.4375 49.1439 51.3854 49.1439C49.3336 49.1439 47.6641 50.8129 47.6641 52.8651C47.6641 53.0345 47.6754 53.2035 47.6984 53.3705C46.6641 53.4013 45.7365 53.8631 45.09 54.5834C44.4777 53.9013 43.6134 53.451 42.6452 53.3788C42.669 53.2094 42.6814 53.0375 42.6814 52.865C42.6814 50.8134 41.0119 49.1439 38.9602 49.1439C36.9075 49.1439 35.2375 50.8129 35.2375 52.8651C35.2375 53.0345 35.2492 53.2035 35.2722 53.3705C34.238 53.4013 33.3107 53.8631 32.6642 54.5834C32.0525 53.9018 31.1883 53.4515 30.2205 53.3788C30.2439 53.2094 30.2561 53.0375 30.2561 52.865C30.2561 50.8134 28.5862 49.1439 26.5339 49.1439C24.4813 49.1439 22.8115 50.8134 22.8115 52.8651C22.8115 53.0351 22.8231 53.2035 22.8461 53.3705C21.8118 53.4013 20.8846 53.8631 20.2386 54.5834C19.6264 53.9013 18.7621 53.451 17.7942 53.3788C17.8177 53.2094 17.83 53.0375 17.83 52.865C17.83 50.8134 16.16 49.1439 14.1078 49.1439C12.055 49.1439 10.3852 50.8134 10.3852 52.8651C10.3852 53.0351 10.3969 53.2035 10.4198 53.3705C8.45644 53.4291 6.87733 55.0437 6.87733 57.0214V58.1707C5.23484 58.5575 4.00772 60.0345 4.00772 61.7932C4.00772 61.9627 4.01897 62.1317 4.04197 62.2982C2.07911 62.3572 0.5 63.9709 0.5 65.9485V73.5075C0.504012 73.7528 0.604284 73.9867 0.779192 74.1588C0.954101 74.3309 1.18963 74.4273 1.43499 74.4273C1.68035 74.4273 1.91588 74.3309 2.09079 74.1588C2.2657 73.9867 2.36597 73.7528 2.36999 73.5075V65.9485C2.36999 64.9652 3.16998 64.1653 4.15335 64.1653H5.33296C5.33634 64.1653 5.33984 64.1658 5.34271 64.1658C5.34571 64.1658 5.34909 64.1653 5.35196 64.1653H11.143C12.1264 64.1653 12.9262 64.9652 12.9262 65.9485V73.5075C12.9247 73.6312 12.9478 73.7539 12.9942 73.8685C13.0405 73.9832 13.1091 74.0876 13.1961 74.1755C13.283 74.2635 13.3866 74.3333 13.5007 74.381C13.6148 74.4286 13.7373 74.4532 13.861 74.4532C13.9846 74.4532 14.1071 74.4286 14.2212 74.381C14.3353 74.3333 14.4389 74.2635 14.5258 74.1755C14.6128 74.0876 14.6814 73.9832 14.7277 73.8685C14.7741 73.7539 14.7972 73.6312 14.7958 73.5075V65.9485C14.7958 64.9652 15.5961 64.1653 16.579 64.1653H22.535C22.538 64.1653 22.5413 64.1658 22.5442 64.1658C22.5477 64.1658 22.5506 64.1653 22.5541 64.1653H23.5691C24.5521 64.1653 25.3518 64.9652 25.3518 65.9485C25.3518 66.4002 25.6727 66.7772 26.0984 66.8645C26.2344 66.8926 26.3749 66.8901 26.5098 66.8571C26.6447 66.824 26.7705 66.7614 26.8781 66.6737C26.9858 66.586 27.0725 66.4754 27.1321 66.3499C27.1916 66.2245 27.2225 66.0874 27.2224 65.9485C27.2224 64.9655 28.0223 64.1658 29.0052 64.1658H35.9948C36.9777 64.1658 37.7776 64.9655 37.7776 65.9485V73.5075C37.7776 74.0241 38.196 74.4425 38.7126 74.4425C39.2292 74.4425 39.6476 74.0241 39.6476 73.5075V65.9485C39.6476 64.9655 40.4479 64.1658 41.4313 64.1658H48.421C49.4039 64.1658 50.2037 64.9655 50.2037 65.9485V73.5075C50.2077 73.7528 50.308 73.9867 50.4829 74.1588C50.6578 74.3309 50.8934 74.4273 51.1387 74.4273C51.3841 74.4273 51.6196 74.3309 51.7945 74.1588C51.9694 73.9867 52.0697 73.7528 52.0737 73.5075V65.9485C52.0737 64.9655 52.8741 64.1658 53.8575 64.1658H60.8473C61.8301 64.1658 62.6299 64.9655 62.6299 65.9485V73.5075C62.6339 73.7528 62.7342 73.9867 62.9091 74.1588C63.084 74.3309 63.3195 74.4273 63.5649 74.4273C63.8102 74.4273 64.0458 74.3309 64.2207 74.1588C64.3956 73.9867 64.4959 73.7528 64.4999 73.5075V65.9485C64.4995 64.0261 63.0069 62.4474 61.1202 62.3068ZM59.2862 61.7933C59.2862 61.9632 59.2629 62.1323 59.2168 62.2958H55.6504C55.6046 62.1323 55.5812 61.9632 55.5811 61.7933C55.5811 60.7718 56.4122 59.9412 57.4336 59.9412H57.4493C57.4628 59.9421 57.4763 59.9428 57.4898 59.9432C58.497 59.9715 59.2862 60.7846 59.2862 61.7933ZM51.3854 51.014C52.4068 51.014 53.2378 51.8446 53.2378 52.8651C53.2378 53.036 53.214 53.205 53.1681 53.3676H49.6036C49.5574 53.2041 49.5338 53.0351 49.5337 52.8651C49.5337 51.8446 50.3644 51.014 51.3854 51.014ZM46.7906 62.2957H43.2257C43.1796 62.1322 43.1563 61.9631 43.1564 61.7932C43.1564 60.7718 43.9869 59.9412 45.0075 59.9412H45.0232C45.0366 59.9421 45.0501 59.9428 45.0637 59.9432C46.0709 59.9715 46.8599 60.7845 46.8599 61.7937C46.8599 61.9642 46.8365 62.1331 46.7906 62.2957ZM38.9602 51.014C39.9812 51.014 40.8112 51.8446 40.8112 52.8651C40.8113 53.035 40.788 53.2041 40.7419 53.3676H37.1775C37.1312 53.2041 37.1077 53.0351 37.1076 52.8651C37.1076 51.8446 37.9388 51.014 38.9602 51.014ZM34.3645 62.2957H30.7995C30.7535 62.1322 30.7301 61.9631 30.7303 61.7932C30.7303 60.7718 31.5613 59.9412 32.5827 59.9412H32.5984C32.6116 59.9422 32.6252 59.9427 32.6384 59.9432C33.6452 59.9715 34.4339 60.7845 34.4339 61.7937C34.4339 61.9642 34.4104 62.1331 34.3645 62.2957ZM26.5339 51.014C27.5554 51.014 28.3864 51.8446 28.3864 52.8651C28.3865 53.035 28.3632 53.2041 28.3172 53.3676H24.7513C24.705 53.2041 24.6815 53.0351 24.6814 52.8651C24.6814 51.8446 25.5126 51.014 26.5339 51.014ZM21.9398 62.2952H18.3734C18.3273 62.1319 18.304 61.963 18.3041 61.7933C18.3041 60.7718 19.1351 59.9412 20.1566 59.9412H20.1703C20.1845 59.9422 20.1986 59.9427 20.2122 59.9432C21.2196 59.9715 22.0086 60.7845 22.0086 61.7937C22.0088 61.9632 21.9857 62.132 21.9398 62.2952ZM14.1078 51.014C15.1293 51.014 15.9603 51.8446 15.9603 52.8651C15.9603 53.036 15.9365 53.205 15.891 53.3676H12.3252C12.2791 53.2041 12.2557 53.035 12.2558 52.8651C12.2558 51.8446 13.0863 51.014 14.1078 51.014ZM7.73032 59.9412H7.74407C7.75819 59.9422 7.77244 59.9427 7.78607 59.9432C8.79344 59.9715 9.58293 60.7845 9.58293 61.7937C9.58293 61.9642 9.55905 62.1331 9.51355 62.2952H5.94746C5.90132 62.132 5.87793 61.9633 5.87796 61.7937C5.87796 60.7718 6.70895 59.9412 7.73032 59.9412ZM13.8608 63.5111C13.2489 62.8289 12.3847 62.3787 11.4169 62.3064C11.4403 62.1371 11.4525 61.9656 11.4525 61.7933C11.4525 60.0803 10.3203 58.6492 8.74756 58.2108V57.0214C8.74756 56.038 9.5473 55.2376 10.5302 55.2376H17.5214C18.5042 55.2376 19.3041 56.038 19.3041 57.0214V58.1707C17.661 58.5575 16.434 60.0345 16.434 61.7937C16.434 61.9632 16.4456 62.1317 16.4686 62.2982C15.4345 62.3289 14.5073 62.7908 13.8608 63.5111ZM26.2874 63.5111C25.6751 62.8294 24.8108 62.3787 23.8431 62.3064C23.8666 62.1371 23.8787 61.9656 23.8787 61.7933C23.8787 60.08 22.7465 58.6487 21.1737 58.2108V57.0214C21.1737 56.038 21.9735 55.2376 22.9563 55.2376H29.9461C30.9295 55.2376 31.7298 56.038 31.7298 57.0214V58.1707C30.0873 58.5575 28.8602 60.0345 28.8602 61.7932C28.8602 61.9632 28.8719 62.1317 28.8943 62.2987C27.8605 62.3294 26.9334 62.7912 26.2874 63.5111ZM38.7121 63.5111C38.1003 62.8294 37.2361 62.3792 36.2678 62.3069C36.2916 62.1374 36.304 61.9657 36.304 61.7932C36.304 60.0803 35.1721 58.6492 33.5999 58.2107V57.0214C33.5999 56.038 34.3996 55.2376 35.3826 55.2376H42.3722C43.3552 55.2376 44.1549 56.038 44.1549 57.0214V58.1707C42.5128 58.5575 41.2863 60.0345 41.2863 61.7932C41.2863 61.9632 41.2981 62.1317 41.3209 62.2987C40.2868 62.3294 39.3584 62.7912 38.7121 63.5111ZM51.1382 63.5111C50.5265 62.8294 49.6622 62.3792 48.694 62.3069C48.7174 62.1374 48.7301 61.9657 48.7301 61.7932C48.7301 60.0803 47.5973 58.6492 46.0245 58.2107V57.0214C46.0245 56.0375 46.8249 55.2376 47.8088 55.2376H54.7983C55.7812 55.2376 56.5809 56.0375 56.5809 57.0214V58.1707C54.938 58.5575 53.711 60.0345 53.711 61.7932C53.711 61.9632 53.7226 62.1317 53.7456 62.2987C52.7118 62.3299 51.7847 62.7918 51.1382 63.5111Z" fill="#D9BCA5" stroke="white" mask="url(#path-2-inside-2_318_10980)"/>
</g>
</g>
<defs>
<clipPath id="clip0_318_10980">
<rect width="66" height="66" fill="white"/>
</clipPath>
<clipPath id="clip1_318_10980">
<rect width="100" height="47" fill="white" transform="translate(-17 11)"/>
</clipPath>
</defs>
</svg>
