<svg width="66" height="66" viewBox="0 0 66 66" fill="none" xmlns="http://www.w3.org/2000/svg">
<g clip-path="url(#clip0_318_10984)">
<g clip-path="url(#clip1_318_10984)">
<path d="M66.5 22.506C66.5 10.6491 55.6496 1.00317 42.3143 1.00317C36.8066 1.00317 31.4177 2.69277 27.1376 5.76177C23.0159 8.71857 20.0789 12.8337 18.8249 17.3778H18.8117C8.0306 19.767 0.5 28.347 0.5 38.2437C0.5 44.3883 3.4568 50.2293 8.6213 54.3147L8.5916 64.3368C8.5916 64.5711 8.717 64.7922 8.9183 64.9077C9.01848 64.9657 9.13209 64.9966 9.24786 64.9971C9.36364 64.9977 9.47755 64.968 9.5783 64.911L19.4684 59.2449C21.1861 59.5811 22.9321 59.7513 24.6824 59.7531C30.1967 59.7531 35.5889 58.0602 39.869 54.9879C43.8587 52.1235 46.7363 48.1767 48.0497 43.8042L57.4217 49.1733C57.524 49.2327 57.6362 49.2591 57.7484 49.2591C57.8606 49.2591 57.9794 49.2294 58.0817 49.17C58.2863 49.0512 58.4117 48.8334 58.4084 48.5958L58.3754 38.5803C63.5399 34.4949 66.4967 28.6572 66.4967 22.5126L66.5 22.506ZM57.3161 37.7289C57.1544 37.8543 57.0587 38.049 57.0587 38.2536L57.0884 47.4507L47.9738 42.2268C47.8352 42.1476 47.6702 42.1212 47.5118 42.1542C45.803 42.508 44.0626 42.6871 42.3176 42.6888C37.8692 42.6888 33.6188 41.5767 29.9294 39.468L34.7408 38.3295C35.0972 38.247 35.315 37.8906 35.2325 37.5342C35.2127 37.4496 35.1764 37.3697 35.1257 37.2992C35.075 37.2287 35.0108 37.1689 34.9369 37.1232C34.8631 37.0775 34.7809 37.0469 34.6951 37.033C34.6094 37.0192 34.5217 37.0224 34.4372 37.0425L28.0682 38.5473C27.8978 38.588 27.7504 38.6945 27.6583 38.8435C27.5661 38.9925 27.5367 39.1719 27.5765 39.3426L29.0813 45.7116C29.1216 45.8816 29.2275 46.0287 29.3759 46.1208C29.5243 46.213 29.7031 46.2426 29.8733 46.2033C30.0437 46.1626 30.1911 46.0561 30.2832 45.9071C30.3754 45.758 30.4048 45.5786 30.365 45.408L29.2232 40.5867C33.1238 42.8274 37.6118 44.0088 42.311 44.0088C43.7795 44.0088 45.2579 43.8801 46.7165 43.6392C44.0072 52.2654 34.9223 58.4265 24.6824 58.4265C22.9499 58.4265 21.2042 58.2483 19.4849 57.8985C19.3265 57.8655 19.1648 57.8919 19.0229 57.9711L9.9083 63.195L9.9347 53.9946C9.9347 53.79 9.839 53.5953 9.6773 53.4699C4.6811 49.6287 1.8134 44.0781 1.8134 38.247C1.8134 28.974 8.9183 20.922 19.0955 18.6714C20.929 18.2662 22.8013 18.0626 24.6791 18.0642C28.6919 18.0642 32.5826 18.9816 36.0278 20.724L31.322 21.8361C31.1516 21.8768 31.0042 21.9833 30.9121 22.1323C30.8199 22.2813 30.7905 22.4607 30.8303 22.6314C30.8706 22.8013 30.9765 22.9485 31.1249 23.0406C31.2733 23.1328 31.4521 23.1624 31.6223 23.1231L37.988 21.6183C38.0726 21.5985 38.1524 21.5622 38.2229 21.5115C38.2935 21.4607 38.3533 21.3966 38.399 21.3227C38.4447 21.2488 38.4753 21.1666 38.4892 21.0809C38.503 20.9951 38.4998 20.9075 38.4797 20.823L36.9749 14.454C36.9339 14.2837 36.8273 14.1366 36.6784 14.0445C36.5295 13.9524 36.3502 13.9229 36.1796 13.9623C36.095 13.9821 36.0152 14.0184 35.9447 14.0691C35.8741 14.1198 35.8143 14.1839 35.7686 14.2578C35.7229 14.3317 35.6923 14.4139 35.6784 14.4997C35.6646 14.5854 35.6678 14.6731 35.6879 14.7576L36.8495 19.6647C33.1634 17.7507 28.9856 16.7409 24.6758 16.7409C23.1908 16.7409 21.719 16.8597 20.2736 17.0973C23.0027 8.48097 32.0876 2.32317 42.3143 2.32317C54.9236 2.32317 65.18 11.3784 65.18 22.506C65.18 28.3404 62.3123 33.8877 57.3161 37.7289Z" fill="#D9BCA5"/>
</g>
<path d="M18.8117 17.4325C8.0306 19.8217 0.5 28.4017 0.5 38.2984C0.5 44.443 3.4568 50.284 8.6213 54.3694L8.5916 64.3915C8.5916 64.6258 8.717 64.8469 8.9183 64.9624C9.01848 65.0205 9.13209 65.0513 9.24786 65.0519C9.36364 65.0525 9.47755 65.0228 9.5783 64.9657L19.4684 59.2996C21.1861 59.6358 22.9321 59.806 24.6824 59.8078C30.1967 59.8078 35.5889 58.1149 39.869 55.0426C43.8587 52.1782 46.7363 48.2314 48.0497 43.8589L18.8249 17.4325L18.8117 17.4325ZM18.8117 17.4325L48.0497 43.8589L47.5 43.5L46.7165 43.6939C44.0072 52.3201 34.9223 58.4812 24.6824 58.4812C22.9499 58.4812 21.2042 58.303 19.4849 57.9532C19.3265 57.9202 19.1648 57.9466 19.0229 58.0258L9.9083 63.2497L9.9347 54.0493C9.9347 53.8447 9.839 53.65 9.6773 53.5246C4.6811 49.6834 1.8134 44.1328 1.8134 38.3017C1.8134 29.0287 8.9183 20.9767 19.0955 18.7261C20.929 18.321 22.8013 18.1174 24.6791 18.1189C28.6919 18.1189 32.5826 19.0363 36.0278 20.7787L31.322 21.8908C31.1516 21.9315 31.0042 22.038 30.9121 22.187C30.8199 22.3361 30.7905 22.5155 30.8303 22.6861C30.8706 22.8561 30.9765 23.0033 31.1249 23.0954C31.2733 23.1875 31.4521 23.2172 31.6223 23.1778L37.988 21.673C38.0726 21.6532 38.1524 21.6169 38.2229 21.5662C38.2935 21.5155 38.3533 21.4514 38.399 21.3775C38.4447 21.3036 38.4753 21.2214 38.4892 21.1357C38.503 21.0499 38.4998 20.9623 38.4797 20.8777L36.9749 14.5087C36.9339 14.3385 36.8273 14.1914 36.6784 14.0993C36.5295 14.0072 36.3502 13.9776 36.1796 14.017C36.095 14.0368 36.0152 14.0731 35.9447 14.1239C35.8741 14.1746 35.8143 14.2387 35.7686 14.3126C35.7229 14.3865 35.6923 14.4687 35.6784 14.5544C35.6646 14.6402 35.6678 14.7278 35.6879 14.8123L36.8495 19.7194C33.1634 17.8054 28.9856 16.7956 24.6758 16.7956C23.1908 16.7956 20.2703 17.1949 18.8249 17.4325L18.8117 17.4325Z" fill="#B3794C"/>
</g>
<defs>
<clipPath id="clip0_318_10984">
<rect width="66" height="66" fill="white"/>
</clipPath>
<clipPath id="clip1_318_10984">
<rect width="66" height="66" fill="white" transform="translate(0.5)"/>
</clipPath>
</defs>
</svg>
