<svg width="66" height="66" viewBox="0 0 66 66" fill="none" xmlns="http://www.w3.org/2000/svg">
<g clip-path="url(#clip0_318_10950)">
<path d="M12.182 34.5208L12.1818 34.5219C11.8051 36.5451 11.4252 38.5683 11.0421 40.5915L11.042 40.5918L10.1315 45.4319L10.1311 45.434C10.0446 45.915 10.1118 46.411 10.3233 46.8515C10.5346 47.2919 10.8793 47.6545 11.3084 47.8879C17.4743 51.2582 24.3897 53.0216 31.4166 53.0154C38.4433 53.0091 45.3554 51.2336 51.5151 47.8524C51.9347 47.6244 52.2703 47.2681 52.4728 46.8355C52.675 46.4034 52.7337 45.918 52.6403 45.4502C52.6402 45.4495 52.64 45.4488 52.6399 45.4482L50.8168 35.7161C50.7778 35.4735 50.8349 35.2252 50.976 35.0239C51.1177 34.8218 51.3329 34.6832 51.5755 34.6378C51.8181 34.5924 52.0688 34.6437 52.2741 34.7808C52.4785 34.9174 52.6216 35.1283 52.673 35.3687L54.4967 45.1008L54.4972 45.1029C54.6658 45.9634 54.5552 46.8551 54.1815 47.6483C53.8079 48.4415 53.1906 49.0946 52.4198 49.5124L52.4188 49.5129C45.9697 53.0423 38.7377 54.8963 31.3859 54.9048C24.0514 54.8984 16.8353 53.0547 10.3967 49.542C9.61913 49.1167 8.99544 48.4571 8.61432 47.657C8.2333 46.857 8.11413 45.9574 8.27374 45.0858C8.27378 45.0856 8.27381 45.0854 8.27385 45.0852L9.18577 40.2416C9.18578 40.2415 9.18578 40.2415 9.18579 40.2415C9.5668 38.2212 9.9462 36.1978 10.324 34.1711C10.6306 32.5575 10.9373 30.9317 11.228 29.32C11.2765 29.0779 11.4179 28.8644 11.622 28.7253C11.8266 28.5857 12.0779 28.5322 12.3216 28.5761C12.5654 28.62 12.7822 28.7579 12.9252 28.9601C13.0678 29.1618 13.1258 29.4113 13.0867 29.6551C12.7965 31.2707 12.4901 32.9043 12.182 34.5208Z" fill="#B3794C" stroke="white" stroke-width="0.53264"/>
<path d="M64.3446 22.7657C64.3453 22.6313 64.3054 22.4999 64.2301 22.3886L64.0095 22.5378L64.2301 22.3886C64.1549 22.2774 64.0479 22.1916 63.9231 22.1422C63.9229 22.1422 63.9227 22.1421 63.9226 22.142L34.4493 10.354C34.4491 10.354 34.449 10.3539 34.4488 10.3538C33.9885 10.1683 33.4969 10.0724 33.0005 10.0715L32.7337 10.0711V10.0824L64.0783 23.8073L64.3446 23.8055L64.3446 22.7657ZM64.3446 22.7657L64.0783 22.7643H64.3446V22.7657ZM30.8502 37.974L30.85 37.9739L1.37483 26.1835L1.37407 26.1832C0.898491 25.9947 0.490741 25.6672 0.203964 25.2436C-0.0828125 24.8199 -0.235315 24.3197 -0.233665 23.8081V23.8073L-0.233664 22.7643L-0.233666 22.7636C-0.235021 22.2523 -0.082381 21.7524 0.204377 21.329C0.491135 20.9057 0.898724 20.5785 1.37407 20.39L1.37483 20.3897L30.85 8.59935L30.8505 8.59915C32.2298 8.04421 33.7702 8.04421 35.1495 8.59915L35.15 8.59935L64.6252 20.3897L64.6259 20.39C65.1013 20.5785 65.5089 20.9057 65.7956 21.329C66.0824 21.7524 66.235 22.2523 66.2337 22.7636V22.7643V23.8073V23.8081C66.2353 24.3197 66.0828 24.8199 65.796 25.2436C65.5093 25.6672 65.1015 25.9947 64.6259 26.1832L64.6252 26.1835L35.15 37.9739L35.1496 37.974C34.4665 38.2486 33.7368 38.3885 32.9998 38.3891C32.2633 38.389 31.5337 38.2481 30.8502 37.974Z" fill="#B3794C" stroke="white" stroke-width="0.53264"/>
<path d="M56.9597 55.4301L56.9598 55.4297L59.526 43.9029C59.5262 43.9023 59.5263 43.9017 59.5264 43.9012C59.5764 43.6587 59.5292 43.4062 59.3949 43.1981C59.2603 42.9895 59.049 42.8423 58.8067 42.7884C58.5643 42.7344 58.3105 42.778 58.1001 42.9098C57.8902 43.0412 57.7403 43.2498 57.6827 43.4906C57.6826 43.4912 57.6825 43.4918 57.6823 43.4923L55.1178 55.0191C55.0346 55.3932 55.0365 55.7812 55.1233 56.1545C55.2101 56.5277 55.3796 56.8767 55.6193 57.1757C55.8591 57.4746 56.1629 57.7159 56.5084 57.8818C56.8538 58.0476 57.2321 58.1337 57.6153 58.1338H63.2756C63.6588 58.1337 64.0371 58.0476 64.3826 57.8818C64.7281 57.7159 65.0319 57.4746 65.2716 57.1757C65.5113 56.8767 65.6809 56.5277 65.7677 56.1545C65.8545 55.7812 65.8563 55.3932 65.7731 55.0191L63.2078 43.4887L63.207 43.4852L63.207 43.4852C63.1815 43.3627 63.1319 43.2464 63.0611 43.1433C62.9903 43.0401 62.8997 42.952 62.7945 42.8841C62.6894 42.8163 62.5718 42.77 62.4487 42.748C62.3255 42.7259 62.1992 42.7286 62.077 42.7558C61.9549 42.783 61.8394 42.8342 61.7372 42.9064C61.635 42.9786 61.5482 43.0704 61.4818 43.1765C61.4154 43.2825 61.3707 43.4007 61.3504 43.5242C61.33 43.6477 61.3344 43.774 61.3633 43.8957L61.3642 43.8993L61.3641 43.8993L63.9295 55.4298L63.9296 55.4301C63.9512 55.528 63.9506 55.6295 63.9278 55.7271C63.9051 55.8247 63.8607 55.916 63.7979 55.9941L63.5902 55.8274L63.7979 55.9942C63.7352 56.0723 63.6557 56.1354 63.5653 56.1788C63.4749 56.2222 63.376 56.2447 63.2757 56.2447H63.2756H57.6163H57.6153V55.9784C57.5548 55.9786 57.495 55.9652 57.4403 55.9392L56.9597 55.4301ZM56.9597 55.4301C56.938 55.5282 56.9387 55.6299 56.9616 55.7277L57.2209 55.6669L56.9597 55.4301ZM60.4442 38.7603H60.4441C60.2208 38.7601 60.0048 38.6808 59.8344 38.5365C59.6641 38.3922 59.5503 38.1921 59.5134 37.9719L58.0346 29.0975L58.0049 28.9188L57.8277 28.8809L36.0309 24.2103L36.0309 24.2103C35.7859 24.1578 35.5717 24.0102 35.4356 23.7999C35.2994 23.5895 35.2524 23.3337 35.3048 23.0887C35.3573 22.8437 35.5049 22.6296 35.7152 22.4934C35.9255 22.3573 36.1813 22.3103 36.4263 22.3627C36.4263 22.3627 36.4263 22.3627 36.4263 22.3627L59.0287 27.206L59.0288 27.2061C59.2141 27.2457 59.3833 27.3401 59.5142 27.4771C59.6451 27.6141 59.7318 27.7873 59.763 27.9742C59.763 27.9743 59.763 27.9743 59.763 27.9743L61.3775 37.661C61.4186 37.908 61.36 38.1612 61.2146 38.365C61.0692 38.5686 60.8491 38.7062 60.6024 38.7477C60.5501 38.7561 60.4972 38.7604 60.4442 38.7603Z" fill="#D9BCA5" stroke="white" stroke-width="0.53264"/>
<path d="M60.1639 45.7731C59.2158 45.7731 58.2889 45.4919 57.5006 44.9652C56.7123 44.4384 56.0979 43.6898 55.735 42.8138C55.3722 41.9379 55.2773 40.974 55.4622 40.0441C55.6472 39.1142 56.1038 38.26 56.7742 37.5896C57.4446 36.9192 58.2988 36.4626 59.2287 36.2777C60.1586 36.0927 61.1224 36.1876 61.9984 36.5505C62.8743 36.9133 63.623 37.5277 64.1497 38.316C64.6765 39.1044 64.9576 40.0312 64.9576 40.9793C64.9563 42.2503 64.4508 43.4688 63.5521 44.3675C62.6534 45.2662 61.4348 45.7717 60.1639 45.7731ZM60.1639 38.8003C59.7329 38.8003 59.3116 38.9281 58.9533 39.1676C58.595 39.407 58.3157 39.7473 58.1508 40.1455C57.9858 40.5436 57.9427 40.9817 58.0268 41.4044C58.1108 41.8271 58.3184 42.2154 58.6231 42.5201C58.9278 42.8248 59.3161 43.0323 59.7388 43.1164C60.1615 43.2005 60.5996 43.1574 60.9977 42.9924C61.3959 42.8275 61.7362 42.5482 61.9756 42.1899C62.2151 41.8316 62.3429 41.4103 62.3429 40.9793C62.3424 40.4016 62.1127 39.8476 61.7041 39.439C61.2956 39.0305 60.7416 38.8008 60.1639 38.8003Z" fill="#D9BCA5"/>
<circle cx="60.164" cy="40.9792" r="3.72848" fill="white"/>
</g>
<defs>
<clipPath id="clip0_318_10950">
<rect width="66" height="66" fill="white"/>
</clipPath>
</defs>
</svg>
