<svg width="142" height="34" viewBox="0 0 142 34" fill="none" xmlns="http://www.w3.org/2000/svg">
<g clip-path="url(#clip0_318_13663)">
<g clip-path="url(#clip1_318_13663)">
<mask id="mask0_318_13663" style="mask-type:luminance" maskUnits="userSpaceOnUse" x="25" y="5" width="9" height="28">
<path d="M28.9154 7.3171C26.803 18.6137 32.3031 17.2164 32.7458 27.0959C32.7284 22.4913 34.2933 20.9132 31.7472 17.0823C29.8022 14.2049 28.8115 10.7886 28.9154 7.3171ZM27.8666 5.15747C29.5493 8.4798 25.3954 11.9337 25.9785 15.9095C26.9425 22.484 31.5433 25.8732 31.9607 32.7829C33.1465 26.6152 32.4101 23.7358 28.8601 17.1816C26.6744 13.1463 29.8805 7.44304 27.8666 5.15747ZM29.2262 7.84064C29.9176 13.504 33.6084 14.0332 33.3302 19.6014C32.4955 15.7126 29.0076 13.1604 29.2262 7.84064Z" fill="white"/>
</mask>
<g mask="url(#mask0_318_13663)">
<path d="M34.2934 5.15747H25.3955V32.7829H34.2934V5.15747Z" fill="url(#paint0_linear_318_13663)"/>
</g>
<path fill-rule="evenodd" clip-rule="evenodd" d="M19.9991 11.1597C20.0819 12.319 20.7708 13.4485 21.8275 14.2203L26.2396 11.1994C24.0932 13.8957 25.1267 16.3336 26.1204 18.8709C25.3917 17.9832 20.7939 16.3708 20.5953 17.8772C20.0299 22.167 26.8823 22.2164 28.9227 26.4828C26.6716 22.8857 19.8509 22.7575 19.0332 17.2583C18.7264 15.1944 18.6285 13.868 19.9991 11.1597Z" fill="#2A4093"/>
<mask id="mask1_318_13663" style="mask-type:luminance" maskUnits="userSpaceOnUse" x="19" y="6" width="10" height="6">
<path d="M20.2372 7.12503C18.6406 11.7226 26.1068 12.564 28.028 6.72754C26.5838 14.8893 17.1898 11.3848 20.2372 7.12503Z" fill="white"/>
</mask>
<g mask="url(#mask1_318_13663)">
<path d="M28.0277 6.72754H17.1895V14.8893H28.0277V6.72754Z" fill="url(#paint1_linear_318_13663)"/>
</g>
<path fill-rule="evenodd" clip-rule="evenodd" d="M20.1211 11.1555C20.7053 11.7603 21.3562 12.7713 24.6794 11.6661L22.4219 13.1756L21.7471 12.3723L21.154 12.9316L20.1211 11.1555Z" fill="#E3000F"/>
<mask id="mask2_318_13663" style="mask-type:luminance" maskUnits="userSpaceOnUse" x="18" y="2" width="12" height="8">
<path d="M18.2051 5.73876C19.0862 7.38172 21.756 4.17526 22.5775 5.48041C23.591 2.7377 26.4603 4.77543 29.613 2.55884C27.6322 6.24883 24.8531 5.31193 23.765 6.53864C23.1455 7.23701 22.7033 8.18331 22.8358 9.11739C22.286 8.24954 22.0785 7.4394 21.3452 6.91133C20.6269 6.39399 18.3078 8.33572 18.2051 5.73876Z" fill="white"/>
</mask>
<g mask="url(#mask2_318_13663)">
<path d="M29.613 2.55884H18.2051V9.11739H29.613V2.55884Z" fill="url(#paint2_linear_318_13663)"/>
</g>
<path fill-rule="evenodd" clip-rule="evenodd" d="M23.6855 7.15977C23.9009 7.64335 25.9943 8.86232 26.6568 5.62939C25.6664 6.06002 24.3132 6.13271 23.6855 7.15977Z" fill="black"/>
<path fill-rule="evenodd" clip-rule="evenodd" d="M21.8603 7.65936C21.8116 7.91877 21.0077 8.73635 20.4102 7.22437C20.886 7.33047 21.4872 7.2231 21.8603 7.65936Z" fill="black"/>
<path fill-rule="evenodd" clip-rule="evenodd" d="M25.7315 6.30754C25.8977 6.22275 26.0689 6.22534 26.1138 6.31333C26.1587 6.40132 26.0603 6.54141 25.8941 6.62619C25.7279 6.71097 25.5568 6.70838 25.5118 6.62039C25.467 6.5324 25.5653 6.39232 25.7315 6.30754Z" fill="white"/>
<path fill-rule="evenodd" clip-rule="evenodd" d="M21.5244 7.5113C21.4175 7.45673 21.3073 7.45839 21.2785 7.51502C21.2496 7.57161 21.3129 7.66177 21.4198 7.7163C21.5268 7.77085 21.6369 7.7692 21.6658 7.71258C21.6946 7.65597 21.6313 7.56583 21.5244 7.5113Z" fill="white"/>
<path fill-rule="evenodd" clip-rule="evenodd" d="M19.6582 4.04586L24.8675 2.13668L28.267 2.93949L24.8874 1.29199L19.6582 4.04586ZM22.3735 3.50299L22.4977 4.86438C23.0211 3.8822 24.0135 3.05112 26.408 3.36383V2.82723L24.9572 2.44964L22.3735 3.50299Z" fill="#E3000F"/>
<mask id="mask3_318_13663" style="mask-type:luminance" maskUnits="userSpaceOnUse" x="2" y="1" width="18" height="18">
<path d="M5.76132 13.0609C7.45203 16.4164 16.244 20.5692 19.3921 11.0914C14.1899 17.2323 8.12784 14.7028 5.76132 13.0609ZM2.9088 7.19225C3.75965 11.3766 10.0956 17.8464 19.0777 10.6008C9.53313 14.3612 4.94194 9.1656 2.9088 7.19225ZM2.6773 1.1333C2.13409 5.41294 6.87738 13.2302 19.1731 10.037C9.00398 10.1696 3.72404 3.80311 2.6773 1.1333ZM11.9052 17.3806C14.4229 18.8246 17.8719 18.5901 18.7674 14.0176C16.1727 17.4342 14.1534 17.3973 11.9052 17.3806Z" fill="white"/>
</mask>
<g mask="url(#mask3_318_13663)">
<path d="M19.3918 1.1333H2.13379V20.5692H19.3918V1.1333Z" fill="url(#paint3_linear_318_13663)"/>
</g>
<mask id="mask4_318_13663" style="mask-type:luminance" maskUnits="userSpaceOnUse" x="0" y="10" width="20" height="16">
<path d="M4.47098 25.7422C2.23178 20.8266 -1.99485 15.0365 1.09233 10.1606C-1.0541 18.9849 9.66089 16.2839 11.9438 20.2966C14.0903 19.1572 16.7932 20.6411 19.3371 19.6209C17.4816 21.0286 14.5899 19.9261 12.8049 21.5451L14.5497 25.4829L12.6195 21.7276C9.21438 17.9382 3.18573 19.9124 1.56933 16.3217C2.21858 20.7339 3.46293 22.9603 4.47098 25.7422Z" fill="white"/>
</mask>
<g mask="url(#mask4_318_13663)">
<path d="M19.3369 10.1606H-1.99512V25.7422H19.3369V10.1606Z" fill="url(#paint4_linear_318_13663)"/>
</g>
</g>
<path d="M99.2522 6.47038L98.5897 8.04429H99.9082L99.2522 6.47038ZM99.7021 5.4246L101.247 9.13213C101.276 9.21449 101.326 9.28754 101.393 9.34374C101.455 9.38378 101.528 9.40346 101.602 9.40001H101.755V9.65729H99.8156V9.40001H99.9976C100.099 9.40764 100.2 9.39125 100.293 9.35219C100.317 9.34095 100.337 9.32319 100.352 9.30094C100.366 9.2787 100.374 9.25286 100.374 9.2264C100.372 9.17733 100.361 9.12908 100.341 9.08431L100.022 8.31889H98.4743L98.3266 8.66778C98.2771 8.76956 98.2461 8.87933 98.235 8.99195C98.2334 9.04797 98.2446 9.10362 98.2677 9.15467C98.2908 9.20571 98.3253 9.2508 98.3685 9.28651C98.473 9.36687 98.6028 9.40715 98.7345 9.40002H98.866V9.6573H97.2988V9.40002H97.3884C97.4854 9.40134 97.5796 9.36742 97.6535 9.30455C97.7643 9.21256 97.8507 9.0947 97.9051 8.96139L99.3942 5.4246H99.7021ZM93.2891 5.7849V5.52756H97.0757V5.7849H96.7011C96.5428 5.7849 96.4637 5.84884 96.4637 5.97745V9.1788C96.4637 9.32648 96.5571 9.4 96.7429 9.4H97.0757V9.65729H94.9536V9.4H95.2768C95.4807 9.4 95.5827 9.32627 95.5827 9.1788V5.7849H94.8839C94.7544 5.7726 94.6242 5.80056 94.5112 5.86496C94.4389 5.92435 94.3881 6.00574 94.3664 6.09671C94.3092 6.4731 94.2742 6.85251 94.2615 7.23299C94.2381 7.72507 94.1834 8.21515 94.0975 8.70025C94.0553 8.99142 93.9298 9.26418 93.7362 9.48564C93.6583 9.56799 93.5642 9.63337 93.4599 9.67768C93.3556 9.722 93.2432 9.74429 93.1299 9.74317C93.0452 9.74883 92.9604 9.73616 92.8811 9.70603C92.8018 9.67591 92.7299 9.62903 92.6704 9.5686C92.5668 9.45929 92.5097 9.31399 92.5112 9.16339C92.5064 9.03007 92.5532 8.90003 92.6418 8.80027C92.6836 8.75321 92.7352 8.71591 92.793 8.69102C92.8508 8.66613 92.9134 8.65427 92.9763 8.65626C93.0674 8.65929 93.1561 8.68589 93.2338 8.73345C93.2825 8.76693 93.3216 8.81249 93.3473 8.86566C93.373 8.91883 93.3845 8.97777 93.3805 9.0367C93.3882 9.15303 93.4302 9.2112 93.5084 9.2112C93.657 9.2112 93.7711 8.98142 93.8506 8.52184C93.9347 8.00119 93.9745 7.47436 93.9696 6.94699C93.9962 6.62333 93.9564 6.29765 93.8525 5.98996C93.8093 5.92033 93.7475 5.8642 93.674 5.82795C93.6005 5.7917 93.5183 5.77678 93.4368 5.78488L93.2891 5.7849ZM90.0868 5.69344C89.8793 5.68886 89.6761 5.75323 89.509 5.87648C89.3241 6.03053 89.1888 6.23582 89.1201 6.46654C89.0114 6.82794 88.9628 7.20474 88.9761 7.58191C88.961 7.96277 89.0057 8.34365 89.1086 8.71064C89.1758 8.93575 89.3115 9.13434 89.4967 9.27883C89.6693 9.40254 89.8773 9.46708 90.0895 9.46281C90.2485 9.46568 90.4055 9.42786 90.5457 9.35294C90.6858 9.27803 90.8045 9.16851 90.8905 9.03479C91.1293 8.57683 91.2331 8.06043 91.1897 7.54576C91.2048 7.16983 91.1614 6.79383 91.061 6.43125C90.9945 6.21081 90.8605 6.01678 90.6779 5.87648C90.5056 5.75364 90.2984 5.68946 90.0868 5.69344ZM90.0715 5.42459C90.4489 5.42162 90.8204 5.51899 91.1478 5.70676C91.4694 5.88775 91.7351 6.15349 91.9161 6.47506C92.1021 6.81122 92.1968 7.19023 92.1907 7.57436C92.1991 7.86016 92.1496 8.1447 92.0452 8.4109C91.9409 8.6771 91.7839 8.91948 91.5835 9.1235C91.3891 9.32549 91.1548 9.48488 90.8955 9.59155C90.6362 9.69822 90.3575 9.74986 90.0772 9.74317C89.7085 9.74905 89.3451 9.65526 89.0253 9.47169C88.7054 9.28812 88.4411 9.0216 88.2603 8.70026C88.0725 8.36001 87.9781 7.97617 87.9866 7.58766C87.9771 7.30187 88.0254 7.0171 88.1286 6.75042C88.2318 6.48374 88.3877 6.24062 88.5871 6.03564C88.7789 5.83673 89.0098 5.67972 89.2653 5.57455C89.5207 5.46938 89.7953 5.41831 90.0715 5.42459ZM84.8406 7.44365H85.3792C85.5004 7.44796 85.6207 7.42068 85.7282 7.36448C85.8128 7.32126 85.8789 7.24879 85.914 7.16053C85.9543 7.02191 85.9768 6.87872 85.9809 6.73442C85.9898 6.48598 86.0182 6.23862 86.0657 5.9946C86.0981 5.84558 86.1781 5.71112 86.2935 5.61146C86.4252 5.50752 86.5903 5.45529 86.7578 5.46458C86.8513 5.45876 86.945 5.47311 87.0325 5.50668C87.12 5.54024 87.1993 5.59223 87.265 5.65911C87.3777 5.77359 87.4416 5.9274 87.4432 6.08809C87.4468 6.22049 87.4005 6.34942 87.3135 6.4493C87.2769 6.49511 87.2306 6.53216 87.1778 6.55774C87.125 6.58332 87.0672 6.59678 87.0086 6.59713C86.9008 6.60028 86.7962 6.56051 86.7177 6.48657C86.6581 6.42973 86.619 6.35472 86.6066 6.27329C86.5942 6.19186 86.6092 6.10862 86.6492 6.03661C86.6669 6.00856 86.6783 5.97698 86.6825 5.94408C86.6825 5.85364 86.6463 5.80773 86.5729 5.80773C86.5322 5.81037 86.493 5.824 86.4594 5.84716C86.4258 5.87033 86.3991 5.90217 86.3822 5.93928C86.3014 6.1811 86.2617 6.43477 86.2649 6.68972C86.2703 6.92119 86.2224 7.15081 86.1249 7.36081C86.038 7.47703 85.9138 7.55983 85.7731 7.59533C86.0534 7.63295 86.311 7.7695 86.4995 7.98033C86.6357 8.21348 86.732 8.46769 86.7845 8.73252C86.8608 9.05302 86.9456 9.21259 87.0391 9.21123C87.162 9.21123 87.2339 9.04724 87.2546 8.71927H87.5004C87.4652 9.37136 87.1942 9.69742 86.6873 9.69744C86.5561 9.70048 86.4261 9.67239 86.3079 9.61547C86.1896 9.54753 86.0981 9.44123 86.0485 9.31419C85.9492 9.02679 85.8849 8.72847 85.857 8.42567C85.842 8.2223 85.7621 8.02912 85.6291 7.87455C85.5725 7.81485 85.5041 7.76757 85.4283 7.73573C85.3525 7.70389 85.2708 7.68818 85.1886 7.6896H84.8406V9.19877C84.8406 9.3332 84.9293 9.40001 85.1066 9.40001H85.4013V9.65729H83.3764V9.40001H83.7015C83.7399 9.4057 83.7792 9.40179 83.8158 9.38863C83.8524 9.37547 83.8852 9.35346 83.9112 9.32458C83.9386 9.28788 83.9554 9.24436 83.9598 9.19877V5.99749C83.9598 5.85556 83.874 5.78491 83.7015 5.78491H83.3764V5.52757H85.4013V5.78491H85.0705C85.0161 5.78696 84.9635 5.80448 84.9188 5.83538C84.8925 5.85301 84.8714 5.87732 84.8577 5.90581C84.844 5.93431 84.8381 5.96596 84.8406 5.99749L84.8406 7.44365ZM81.3011 9.32551V6.01377C81.3011 5.86113 81.2143 5.7849 81.0398 5.7849H80.7062V5.52756H82.7826V5.7849H82.4031C82.2476 5.7849 82.1704 5.84884 82.1704 5.97745V9.1788C82.1704 9.32648 82.262 9.40021 82.445 9.4H82.7826V9.65729H76.0902V9.4H76.4143C76.6173 9.4 76.7193 9.32648 76.7193 9.1788V6.01377C76.7193 5.86113 76.6326 5.78483 76.4591 5.7849H76.0902V5.52756H78.1895V5.7849H77.8233C77.667 5.7849 77.5888 5.84884 77.5888 5.97745V9.32551H79.0074V6.01377C79.0074 5.86113 78.9213 5.78483 78.7491 5.7849H78.504V5.52756H80.3801V5.7849H80.1074C79.954 5.7849 79.8768 5.84884 79.8768 5.97745V9.32551H81.3011ZM72.3883 7.46666V6.09768C72.3883 5.96133 72.3654 5.87551 72.3187 5.8392C72.2173 5.79191 72.1049 5.77313 71.9936 5.78489C71.7573 5.76772 71.5221 5.83017 71.3254 5.96228C71.2421 6.0444 71.1786 6.14443 71.1398 6.25477C71.101 6.36512 71.0878 6.48286 71.1013 6.59905C71.0835 6.72918 71.0999 6.86169 71.1489 6.98355C71.1979 7.1054 71.2778 7.2124 71.3807 7.29399C71.5793 7.41243 71.8073 7.47229 72.0384 7.46665L72.3883 7.46666ZM73.8469 5.52756V5.78489H73.498C73.3454 5.78489 73.2691 5.86784 73.2691 6.03373V9.15111C73.2646 9.18528 73.2681 9.22004 73.2793 9.25263C73.2905 9.28522 73.3092 9.31476 73.3338 9.3389C73.3584 9.36304 73.3883 9.38113 73.4211 9.39174C73.4539 9.40234 73.4887 9.40517 73.5228 9.4H73.8469V9.65728H71.759V9.4H72.1309C72.198 9.40232 72.2637 9.38029 72.3159 9.33798C72.3395 9.31827 72.3583 9.29342 72.3708 9.26534C72.3834 9.23725 72.3893 9.20668 72.3883 9.17594V7.72401H72.0803C71.9946 7.71823 71.9087 7.73355 71.8303 7.76862C71.7518 7.8037 71.6832 7.85745 71.6303 7.9252C71.4885 8.16677 71.3934 8.43292 71.3501 8.70969C71.309 8.91312 71.2529 9.11323 71.1823 9.30839C71.1351 9.42406 71.0536 9.52251 70.9488 9.59054C70.8213 9.66726 70.674 9.70447 70.5254 9.69745C70.4187 9.70416 70.3118 9.6875 70.2122 9.64863C70.1126 9.60976 70.0227 9.54962 69.9487 9.47241C69.7906 9.2553 69.7055 8.99361 69.7056 8.72502H69.9516C69.957 8.83533 69.9798 8.94409 70.0192 9.04727C70.0603 9.16054 70.1156 9.21683 70.1841 9.21683C70.2767 9.2149 70.3633 9.07587 70.4472 8.80222C70.5081 8.5833 70.5912 8.37116 70.6952 8.16912C70.7732 8.03031 70.8837 7.91254 71.0174 7.82597C71.1791 7.72744 71.359 7.66259 71.5464 7.63527C70.636 7.56287 70.1807 7.21081 70.1803 6.57911C70.1718 6.42022 70.2075 6.26207 70.2834 6.12222C70.3593 5.98237 70.4724 5.86629 70.6103 5.78684C70.9397 5.60361 71.3128 5.51395 71.6895 5.52758L73.8469 5.52756ZM67.0268 6.47038L66.3643 8.04429H67.6828L67.0268 6.47038ZM67.4767 5.4246L69.0213 9.13213C69.0504 9.21451 69.101 9.28758 69.168 9.34374C69.23 9.3838 69.3031 9.40348 69.3769 9.40001H69.5293V9.65729H67.5902V9.40001H67.7723C67.8732 9.40764 67.9745 9.39125 68.0678 9.35219C68.0918 9.34095 68.1121 9.32319 68.1264 9.30094C68.1407 9.27869 68.1485 9.25286 68.1488 9.2264C68.1469 9.17733 68.1356 9.12909 68.1155 9.08431L67.7971 8.31889H66.2489L66.1012 8.66778C66.0517 8.76957 66.0207 8.87933 66.0096 8.99195C66.008 9.04797 66.0192 9.10363 66.0423 9.15467C66.0654 9.20571 66.0999 9.2508 66.1431 9.28651C66.2476 9.36687 66.3774 9.40715 66.5091 9.40002H66.6406V9.6573H65.0735V9.40002H65.163C65.26 9.40134 65.3543 9.36742 65.4282 9.30455C65.5389 9.21255 65.6253 9.09469 65.6797 8.96139L67.1689 5.4246H67.4767ZM60.485 5.52757H62.3955V5.78491H62.1134C62.0491 5.77991 61.9852 5.79892 61.934 5.83825C61.9145 5.85625 61.8991 5.87828 61.8889 5.90281C61.8787 5.92735 61.874 5.9538 61.8751 5.98034V7.33492H63.4595V6.0499C63.4634 6.01311 63.4598 5.97591 63.449 5.94053C63.4382 5.90515 63.4203 5.87234 63.3965 5.84405C63.3357 5.79884 63.2603 5.77776 63.1849 5.78489H62.9447V5.52755H64.8551V5.78489H64.5986C64.5246 5.77786 64.4504 5.79782 64.3899 5.84111C64.368 5.86385 64.3512 5.89104 64.3406 5.92082C64.3301 5.9506 64.3261 5.98229 64.3288 6.01377V9.13674C64.3256 9.17262 64.3295 9.20878 64.3404 9.24315C64.3512 9.27752 64.3686 9.30942 64.3918 9.33702C64.4154 9.35891 64.4432 9.37578 64.4735 9.38661C64.5038 9.39744 64.536 9.40199 64.5681 9.4H64.8551V9.65727H62.9447V9.4H63.2354C63.2662 9.4029 63.2974 9.39968 63.327 9.39051C63.3566 9.38135 63.3841 9.36643 63.4079 9.3466C63.4473 9.29555 63.4657 9.2314 63.4595 9.16722V7.67826H61.8751V9.16722C61.8699 9.23023 61.8878 9.29296 61.9255 9.34371C61.9429 9.36255 61.9642 9.37735 61.988 9.38707C62.0117 9.39679 62.0372 9.4012 62.0629 9.39999H62.3955V9.65727H60.485V9.39999H60.7911C60.8192 9.40247 60.8475 9.39891 60.8741 9.38953C60.9008 9.38016 60.9251 9.36518 60.9454 9.34562C60.9825 9.29426 60.9998 9.23125 60.9941 9.16818V6.05087C60.998 6.01403 60.9943 5.97677 60.9833 5.94138C60.9724 5.90599 60.9543 5.8732 60.9303 5.845C60.8716 5.79982 60.798 5.77837 60.7242 5.7849H60.485V5.52757ZM56.3256 5.52757H59.935L60.0266 7.09474H59.7748C59.7347 6.82247 59.6567 6.55714 59.5433 6.3064C59.4716 6.1461 59.3592 6.00739 59.2172 5.90409C59.0984 5.82578 58.9591 5.78432 58.8168 5.78491C58.7512 5.77947 58.6859 5.79772 58.6327 5.83634C58.6126 5.85553 58.5969 5.87887 58.5867 5.90474C58.5765 5.93061 58.5721 5.95839 58.5737 5.98615V9.19014C58.5727 9.21782 58.5772 9.24541 58.587 9.2713C58.5969 9.29719 58.6118 9.32085 58.6309 9.34087C58.6486 9.3598 58.6699 9.37483 58.6937 9.38502C58.7175 9.3952 58.7432 9.40031 58.769 9.40001H59.2372V9.65729H57.0292V9.40001H57.4755C57.5045 9.40149 57.5335 9.3972 57.5608 9.38737C57.5881 9.37755 57.6132 9.36238 57.6346 9.34277C57.6543 9.32268 57.6696 9.29877 57.6796 9.27251C57.6895 9.24625 57.694 9.2182 57.6927 9.19014V6.00323C57.6952 5.97304 57.6911 5.94265 57.6808 5.91417C57.6704 5.88569 57.6541 5.85979 57.6327 5.83825C57.5782 5.79842 57.5113 5.77948 57.444 5.78491C56.9691 5.78491 56.6479 6.22152 56.4802 7.09474H56.2342L56.3256 5.52757ZM55.1302 5.84112L55.3257 5.43024H55.5316L55.6003 7.08911H55.3428C55.3007 6.6971 55.1431 6.32643 54.89 6.02414C54.7946 5.91608 54.6776 5.82927 54.5466 5.76932C54.4155 5.70938 54.2733 5.67765 54.1292 5.67619C53.972 5.67765 53.8179 5.71957 53.6817 5.7979C53.5454 5.87622 53.4316 5.98831 53.3513 6.12338C53.114 6.5535 53.007 7.04341 53.0434 7.5333C53.0062 8.05984 53.1239 8.58576 53.3818 9.0463C53.4711 9.17367 53.5915 9.27614 53.7315 9.34401C53.8715 9.41188 54.0265 9.44291 54.1818 9.43417C54.3491 9.4369 54.5151 9.40369 54.6685 9.33678C54.8219 9.26986 54.9592 9.17081 55.0711 9.0463C55.2675 8.80896 55.3934 8.52127 55.4344 8.21595H55.6859C55.6489 8.64153 55.4569 9.03873 55.1465 9.33222C54.8448 9.6069 54.4485 9.75416 54.0407 9.74317C53.7745 9.74907 53.5101 9.69878 53.2647 9.59561C53.0193 9.49244 52.7983 9.3387 52.6163 9.1444C52.4241 8.93932 52.2744 8.69816 52.1759 8.43488C52.0774 8.1716 52.032 7.8914 52.0424 7.61048C52.0285 7.30278 52.0805 6.99566 52.1948 6.70962C52.309 6.42358 52.483 6.1652 52.7051 5.95174C53.0589 5.60899 53.5336 5.41957 54.0262 5.42458C54.2152 5.42294 54.4031 5.45455 54.5812 5.51797C54.7798 5.5967 54.965 5.70572 55.1302 5.84112ZM49.1291 6.47038L48.4666 8.04429H49.7851L49.1291 6.47038ZM49.579 5.4246L51.1235 9.13213C51.1527 9.2145 51.2033 9.28757 51.2703 9.34374C51.3323 9.38379 51.4053 9.40347 51.4791 9.40001H51.6316V9.65729H49.6925V9.40001H49.8745C49.9755 9.40763 50.0768 9.39125 50.1701 9.35219C50.1941 9.34095 50.2144 9.32319 50.2287 9.30094C50.243 9.27869 50.2508 9.25286 50.2512 9.2264C50.2493 9.17732 50.2379 9.12908 50.2177 9.08431L49.8994 8.31889H48.3512L48.2035 8.66778C48.154 8.76956 48.123 8.87933 48.1119 8.99195C48.1103 9.04797 48.1215 9.10362 48.1446 9.15466C48.1677 9.2057 48.2022 9.2508 48.2454 9.28651C48.3499 9.36687 48.4798 9.40715 48.6114 9.40002H48.7429V9.6573H47.1758V9.40002H47.2653C47.3623 9.40134 47.4566 9.36742 47.5305 9.30455C47.6412 9.21254 47.7276 9.09469 47.782 8.96139L49.2712 5.4246H49.579ZM45.4664 7.3359V6.05854C45.4664 5.94313 45.4426 5.86881 45.3959 5.83537C45.339 5.79941 45.2724 5.78179 45.2052 5.78491H44.8373V5.52757H46.9479V5.78491H46.5694C46.414 5.78491 46.3358 5.84885 46.3358 5.97746V9.17881C46.3358 9.32648 46.4273 9.40001 46.6113 9.40001H46.9479V9.65729H44.8373V9.40001H45.1604C45.3644 9.40001 45.4664 9.32628 45.4664 9.17881V7.60013C45.142 7.81318 44.7638 7.92954 44.3758 7.93562C44.0439 7.94875 43.7166 7.85372 43.4434 7.66485C43.3195 7.56912 43.2211 7.44432 43.1569 7.3015C43.0927 7.15868 43.0647 7.00224 43.0754 6.84602V6.05854C43.0754 5.94313 43.0525 5.86881 43.0059 5.83537C42.9491 5.79917 42.8825 5.78153 42.8152 5.78491H42.4463V5.52757H44.5569V5.78491H44.1774C44.1461 5.78015 44.1141 5.78275 44.084 5.79251C44.0539 5.80227 44.0265 5.81893 44.0039 5.84114C43.9813 5.86335 43.9642 5.89052 43.954 5.92049C43.9438 5.95046 43.9406 5.9824 43.9449 6.01378V6.94223C43.9402 7.06896 43.9566 7.19558 43.9935 7.31691C44.0323 7.41245 44.1026 7.49185 44.1928 7.54195C44.3061 7.60552 44.4347 7.6368 44.5646 7.63239C44.7285 7.62848 44.8907 7.59826 45.0451 7.54289C45.1958 7.49717 45.3381 7.42726 45.4664 7.3359Z" fill="#1A1A18"/>
<path d="M132.272 14.7461H141.587L141.823 18.9471H141.173C141.07 18.2189 140.869 17.508 140.576 16.8338C140.394 16.4073 140.104 16.0356 139.734 15.7554C139.43 15.5462 139.07 15.4348 138.701 15.4359C138.531 15.4215 138.362 15.4707 138.226 15.574C138.174 15.6263 138.133 15.6891 138.107 15.7582C138.08 15.8274 138.069 15.9013 138.074 15.9752V24.5642C138.068 24.7129 138.121 24.8579 138.221 24.9679C138.266 25.0182 138.321 25.0584 138.382 25.0857C138.444 25.113 138.511 25.1269 138.578 25.1263H139.786V25.8163H134.088V25.1263H135.239C135.315 25.1302 135.39 25.1186 135.461 25.0922C135.531 25.0659 135.596 25.0253 135.65 24.9731C135.701 24.9185 135.741 24.8541 135.767 24.7839C135.793 24.7136 135.804 24.639 135.8 24.5642V16.0212C135.807 15.9408 135.797 15.8598 135.77 15.7836C135.743 15.7074 135.701 15.6377 135.645 15.5791C135.506 15.4725 135.333 15.4215 135.158 15.4359C133.933 15.4359 133.104 16.6063 132.671 18.9471H132.036L132.272 14.7461ZM125.182 17.2733L123.472 21.4925H126.874L125.182 17.2733ZM126.343 14.47L130.329 24.4082C130.403 24.6274 130.533 24.8232 130.708 24.9756C130.866 25.0825 131.055 25.1354 131.246 25.1263H131.64V25.8163H126.636V25.1263H127.106C127.367 25.1466 127.628 25.1027 127.868 24.9986C127.931 24.9671 127.984 24.9189 128.021 24.8594C128.057 24.7998 128.077 24.7312 128.078 24.6612C128.073 24.53 128.043 24.401 127.992 24.2804L127.17 22.2283H123.174L122.793 23.1637C122.665 23.4377 122.585 23.7315 122.557 24.0326C122.552 24.1815 122.58 24.3296 122.64 24.4662C122.7 24.6028 122.789 24.7244 122.901 24.8223C123.168 25.0366 123.504 25.1449 123.846 25.1263H124.185V25.8163H120.141V25.1263H120.372C120.624 25.1293 120.868 25.0382 121.056 24.8707C121.344 24.6213 121.567 24.3056 121.705 23.9508L125.548 14.47L126.343 14.47ZM106.309 14.7461H110.605L113.019 22.2463L115.452 14.7461H119.846V15.4359H118.889C118.714 15.4174 118.539 15.4659 118.399 15.5714C118.297 15.7037 118.249 15.8702 118.266 16.0366V24.5053C118.257 24.5851 118.265 24.666 118.29 24.7423C118.315 24.8186 118.357 24.8886 118.411 24.9474C118.579 25.0746 118.787 25.1379 118.997 25.1263H119.846V25.8163H114.428V25.1263H115.447C115.526 25.1314 115.605 25.1192 115.679 25.0905C115.753 25.0618 115.82 25.0174 115.875 24.9602C115.979 24.8326 116.032 24.6701 116.022 24.5053V15.441L112.613 25.8163H111.98L108.612 15.3517V23.4474C108.604 23.6563 108.637 23.8647 108.71 24.0608C108.782 24.2568 108.893 24.4366 109.035 24.5897C109.367 24.9108 109.804 25.1013 110.265 25.1263V25.8163H106.309V25.1263C106.53 25.1166 106.746 25.0633 106.946 24.9694C107.146 24.8756 107.325 24.7431 107.473 24.5795C107.758 24.2378 107.906 23.8025 107.889 23.3579V16.1924C107.914 15.9786 107.86 15.7629 107.736 15.5868C107.567 15.4662 107.36 15.4124 107.153 15.4359H106.309L106.309 14.7461ZM99.6839 15.1907C99.1456 15.1796 98.6195 15.3526 98.193 15.6812C97.7119 16.0999 97.3631 16.6496 97.1892 17.2631C96.9085 18.2339 96.7832 19.243 96.8178 20.253C96.7786 21.273 96.8939 22.2932 97.1596 23.2788C97.3296 23.877 97.6791 24.4086 98.161 24.8019C98.6021 25.1318 99.1405 25.3053 99.6912 25.295C100.106 25.3 100.514 25.1969 100.877 24.9956C101.239 24.7944 101.543 24.5021 101.758 24.1476C102.272 23.3809 102.53 22.0504 102.53 20.1559C102.57 19.1491 102.458 18.1421 102.198 17.1685C102.03 16.5826 101.684 16.063 101.209 15.6812C100.769 15.3536 100.233 15.1811 99.6839 15.1907ZM99.6444 14.47C100.618 14.4658 101.575 14.7253 102.413 15.2212C103.252 15.717 103.94 16.4306 104.405 17.2861C104.886 18.1927 105.13 19.2063 105.114 20.2325C105.161 21.7696 104.598 23.263 103.546 24.3853C102.703 25.2648 101.587 25.8328 100.379 25.9971C99.1717 26.1613 97.9442 25.912 96.8964 25.2898C96.0863 24.791 95.4219 24.0877 94.9699 23.2506C94.4844 22.3329 94.2414 21.3063 94.2639 20.2683C94.2103 18.7312 94.7675 17.2354 95.8138 16.108C96.2996 15.5788 96.8924 15.1591 97.5528 14.8767C98.2133 14.5943 98.9263 14.4556 99.6444 14.47ZM83.0156 15.4359V14.7461H92.7879V15.4359H91.8208C91.4125 15.4359 91.2082 15.6073 91.2082 15.9522V24.5335C91.2082 24.9296 91.4494 25.1263 91.9292 25.1263H92.7879V25.8163H87.3113V25.1263H88.1453C88.6718 25.1263 88.9351 24.9296 88.9351 24.5335V15.4359H87.1318C86.7965 15.4033 86.4595 15.4785 86.1698 15.6506C85.9817 15.8121 85.8506 16.0298 85.7958 16.2716C85.6484 17.2811 85.558 18.2981 85.5252 19.3178C85.465 20.6362 85.3237 21.9496 85.1019 23.2506C84.9956 24.0263 84.6724 24.7562 84.1697 25.3563C83.9723 25.5753 83.7309 25.75 83.4612 25.8689C83.1915 25.9878 82.8996 26.0483 82.6049 26.0463C82.385 26.0607 82.1646 26.0263 81.9595 25.9454C81.7545 25.8645 81.5699 25.7393 81.419 25.5786C81.1502 25.2813 81.0034 24.8934 81.0082 24.4926C80.9951 24.1373 81.1153 23.79 81.3452 23.5189C81.451 23.3938 81.5835 23.2942 81.733 23.2274C81.8825 23.1606 82.0451 23.1284 82.2088 23.133C82.4447 23.1415 82.6741 23.2129 82.8731 23.34C83 23.4321 83.1014 23.5551 83.1677 23.6973C83.234 23.8395 83.263 23.9963 83.2519 24.1527C83.2715 24.4644 83.3797 24.6203 83.5814 24.6203C83.9654 24.6203 84.2598 24.0044 84.4647 22.7727C84.682 21.3762 84.7848 19.9643 84.7724 18.551C84.7724 17.2094 84.6715 16.3542 84.4696 15.9854C84.3619 15.801 84.2037 15.6513 84.0136 15.5539C83.8236 15.4565 83.6096 15.4156 83.397 15.4359L83.0156 15.4359ZM76.5329 15.4819H72.4735V24.5028C72.4735 24.9193 72.6334 25.1263 72.9559 25.1263H73.8169V25.8163H68.8569V25.1263H69.6762C70.0256 25.1263 70.2003 24.9193 70.2003 24.5053V16.1489C70.2152 16.0533 70.2076 15.9556 70.1781 15.8635C70.1486 15.7714 70.0981 15.6874 70.0305 15.6182C69.9629 15.549 69.8801 15.4965 69.7887 15.4648C69.6973 15.4332 69.5998 15.4233 69.5039 15.4359H68.8569V14.7461H80.1495V15.4359H79.5025C79.0375 15.4359 78.8062 15.6404 78.8062 16.0493V24.421C78.8062 24.8912 79.0129 25.1263 79.4237 25.1263H80.1495V25.8163H75.1897V25.1263H75.9647C76.3435 25.1263 76.5329 24.9193 76.5329 24.5028L76.5329 15.4819ZM59.5129 22.9618L59.685 22.5146L63.6756 16.4173V16.154C63.6756 15.8499 63.6142 15.6557 63.4935 15.5689C63.338 15.471 63.1555 15.4244 62.972 15.4359H62.3323V14.7461H67.2921V15.4359H66.6378C66.1778 15.4359 65.9489 15.6404 65.9489 16.0493V24.421C65.9489 24.8912 66.1532 25.1263 66.5592 25.1263H67.2921V25.8163H62.3323V25.1263H63.1072C63.4862 25.1263 63.6756 24.9193 63.6756 24.5028V17.7231L63.5158 18.1294L59.5129 24.191V24.5053C59.5129 24.9193 59.6727 25.1263 59.9951 25.1263H60.8563V25.8163H55.8963V25.1263H56.7155C57.0651 25.1263 57.2398 24.9193 57.2396 24.5053V16.1489C57.2544 16.0533 57.2468 15.9556 57.2174 15.8635C57.1879 15.7714 57.1374 15.6874 57.0698 15.6182C57.0023 15.549 56.9195 15.4965 56.8281 15.4649C56.7367 15.4332 56.6392 15.4233 56.5433 15.4359H55.8963V14.7461H60.8563V15.4359H60.1156C59.7146 15.4359 59.5129 15.6098 59.5129 15.9598L59.5129 22.9618ZM50.4764 25.0344V15.4359H48.7741C48.3624 15.4032 47.9499 15.4892 47.5856 15.6838C47.4707 15.757 47.3715 15.8523 47.2938 15.9641C47.2161 16.076 47.1614 16.2022 47.133 16.3354C47.0391 16.9095 46.9824 17.4891 46.9632 18.0706C46.9066 19.1287 46.8337 20.0683 46.7443 20.8892C46.6466 21.7396 46.4037 22.5668 46.026 23.3349C45.7306 24.0356 45.2274 24.6288 44.5841 25.0344L50.4764 25.0344ZM54.3291 14.7461V15.4359H53.35C52.949 15.4359 52.7498 15.6073 52.7498 15.9522V24.3111C52.7498 24.8452 53.0311 25.1118 53.5936 25.111H54.3291V28.5762H53.5616C53.527 28.0773 53.4244 27.5855 53.2565 27.1145C53.1612 26.8913 53.0203 26.6905 52.8427 26.525C52.6652 26.3595 52.4551 26.233 52.2257 26.1536C51.7187 25.9334 51.1721 25.8186 50.6192 25.8163H45.962C45.269 25.7898 44.5861 25.9889 44.0159 26.3835C43.4993 26.7594 43.227 27.4801 43.1991 28.5457H42.4463L42.5495 25.111C43.0632 25.1121 43.5702 24.994 44.0306 24.766C44.4848 24.4638 44.8467 24.042 45.0762 23.547C45.4456 22.8223 45.7004 22.0447 45.8316 21.242C46.0157 20.1977 46.103 19.1386 46.0923 18.0782C46.1568 17.3488 46.0489 16.6144 45.7774 15.9343C45.6379 15.7539 45.4538 15.6131 45.2432 15.5257C45.0327 15.4382 44.8029 15.4073 44.5767 15.4359H44.4243V14.7461L54.3291 14.7461Z" fill="#E3000F"/>
</g>
<defs>
<linearGradient id="paint0_linear_318_13663" x1="25.9221" y1="18.9702" x2="33.3458" y2="18.9702" gradientUnits="userSpaceOnUse">
<stop/>
<stop offset="1" stop-color="#372483"/>
</linearGradient>
<linearGradient id="paint1_linear_318_13663" x1="19.6327" y1="10.8084" x2="28.0276" y2="10.8084" gradientUnits="userSpaceOnUse">
<stop/>
<stop offset="1" stop-color="#372483"/>
</linearGradient>
<linearGradient id="paint2_linear_318_13663" x1="18.2051" y1="5.83812" x2="29.613" y2="5.83812" gradientUnits="userSpaceOnUse">
<stop/>
<stop offset="1" stop-color="#372483"/>
</linearGradient>
<linearGradient id="paint3_linear_318_13663" x1="2.63508" y1="10.8513" x2="19.3923" y2="10.8513" gradientUnits="userSpaceOnUse">
<stop/>
<stop offset="1" stop-color="#372483"/>
</linearGradient>
<linearGradient id="paint4_linear_318_13663" x1="0.00344134" y1="17.9514" x2="19.3372" y2="17.9514" gradientUnits="userSpaceOnUse">
<stop stop-color="#E3000F"/>
<stop offset="0.31" stop-color="#E3000F"/>
<stop offset="0.35206" stop-color="#E51422"/>
<stop offset="0.53667" stop-color="#EE666F"/>
<stop offset="0.70018" stop-color="#F5A8AD"/>
<stop offset="0.83656" stop-color="#FBD7D9"/>
<stop offset="0.94061" stop-color="#FEF4F5"/>
<stop offset="1" stop-color="white"/>
</linearGradient>
<clipPath id="clip0_318_13663">
<rect width="142" height="32.413" fill="white" transform="translate(0 0.793457)"/>
</clipPath>
<clipPath id="clip1_318_13663">
<rect width="33.9565" height="32.413" fill="white" transform="translate(0 0.793457)"/>
</clipPath>
</defs>
</svg>
